<?xml version="1.0" standalone="no"?>
<!DOCTYPE svg PUBLIC "-//W3C//DTD SVG 1.1//EN" "http://www.w3.org/Graphics/SVG/1.1/DTD/svg11.dtd" >
<svg>
<metadata>
Created by FontForge 20110222 at Mon Mar  7 12:44:57 2011
 By www-data
Turbayne Running hand Heavy
</metadata>
<defs>
<font id="TurbayneRunningHand" horiz-adv-x="340" >
  <font-face 
    font-family="Turbayne Running Hand"
    font-weight="400"
    font-stretch="normal"
    units-per-em="1000"
    panose-1="2 0 5 3 0 0 0 0 0 0"
    ascent="800"
    descent="-200"
    x-height="305"
    cap-height="498"
    bbox="-580 -337 1262 756"
    underline-thickness="50"
    underline-position="-125"
    unicode-range="U+0020-2122"
  />
    <missing-glyph />
    <glyph glyph-name="space" unicode=" " horiz-adv-x="263" 
 />
    <glyph glyph-name="exclam" unicode="!" horiz-adv-x="193" 
d="M38 111c7 15 65 200 81 292c5 28 18 42 40 42c19 0 29 -12 29 -35c0 -9 -1 -16 -4 -22c-32 -69 -66 -154 -103 -257c-6 -23 -17 -43 -27 -43c-11 0 -16 8 -16 23zM29 -9c-19 0 -29 10 -29 29c0 31 19 58 41 58c17 0 26 -11 26 -34c0 -27 -18 -53 -38 -53z" />
    <glyph glyph-name="quotedbl" unicode="&#x22;" horiz-adv-x="230" 
d="M102 357l-6 6c28 14 54 55 54 64l-8 8c-6 5 -9 12 -9 20c0 29 17 57 41 57c17 0 26 -13 26 -38c0 -50 -31 -94 -92 -133c-10 2 -15 8 -15 19c3 0 3 0 9 -3zM36 357l-6 6c28 14 54 55 54 64l-8 8c-6 5 -9 12 -9 20c0 29 17 57 41 57c17 0 26 -13 26 -38
c0 -50 -31 -94 -92 -133c-10 2 -15 8 -15 19c3 0 3 0 9 -3z" />
    <glyph glyph-name="numbersign" unicode="#" horiz-adv-x="395" 
d="M233 419c-7 -25 -19 -61 -35 -110l45 1c50 158 51 160 61 160s21 -17 21 -29c0 -3 -13 -47 -40 -130h69c13 0 19 -5 19 -16c0 -12 -8 -19 -23 -22l-76 -1l-15 -44l73 3c14 0 19 -5 19 -18c0 -12 -8 -19 -23 -22h-80l-51 -162c-3 -11 -9 -17 -17 -17c-3 0 -23 10 -23 27
l48 152l-44 -1l-50 -161c-3 -11 -9 -17 -17 -17c-15 0 -22 11 -22 32c15 46 31 94 48 145l-65 -1c-12 0 -18 5 -18 14c0 17 6 26 18 26v-2l76 1l14 43l-65 -1c-12 0 -18 5 -18 14c0 24 7 26 28 26h67c50 159 51 161 61 161c15 0 22 -23 22 -68zM186 271l-14 -44l45 1l14 44z
" />
    <glyph glyph-name="dollar" unicode="$" horiz-adv-x="441" 
d="M385 338c-3 -15 -10 -22 -19 -22c-7 0 -11 4 -13 11c0 43 -8 73 -23 91l-40 -123c69 -46 104 -96 104 -149c0 -98 -79 -169 -163 -169c-15 0 -30 1 -44 3l-21 -70c-3 -5 -8 -8 -13 -8c-10 0 -15 4 -15 13c0 3 8 27 23 72l-11 3l-24 -78c-2 -4 -6 -7 -11 -9
c-11 0 -17 5 -17 14c0 2 9 31 27 86c-23 13 -44 33 -62 60c-31 -83 -31 -83 -45 -83c-12 0 -18 5 -18 16l63 166c22 62 24 65 37 65c10 0 15 -5 15 -16c-6 -30 -11 -52 -11 -57c0 -43 12 -79 37 -106l70 219c-55 33 -83 66 -83 100c0 82 45 115 153 115l33 104c2 4 6 7 11 9
c11 0 17 -5 17 -14c0 -2 -11 -37 -34 -104c4 -1 8 -2 11 -3l35 110c2 6 6 9 13 9c10 0 15 -4 15 -13c0 -3 -13 -42 -38 -119c15 -8 21 -14 42 -35c5 29 18 56 30 56c16 0 18 -7 18 -19c-21 -35 -37 -77 -49 -125zM297 442l-40 -126l8 -5l42 127c-2 2 -6 3 -10 4zM180 394
c0 -18 17 -39 51 -62l38 117c-50 0 -89 -10 -89 -55zM270 231l-72 -218c11 -3 23 -4 36 -4c60 0 107 48 107 110c0 42 -24 79 -71 112zM236 252l-73 -223c3 -2 6 -4 9 -5l73 223c-3 1 -6 3 -9 5z" />
    <glyph glyph-name="percent" unicode="%" horiz-adv-x="620" 
d="M393 -19c-63 0 -109 51 -109 121c0 105 81 199 172 199c62 0 94 -58 94 -124c0 -106 -71 -196 -157 -196zM186 -111c-2 -6 -7 -9 -15 -9c-9 0 -13 5 -13 14c0 2 72 225 215 668c2 6 7 9 14 9c9 0 14 -5 14 -14c0 -2 -72 -225 -215 -668zM115 161c-65 0 -109 49 -109 121
c0 106 78 198 171 198c56 0 94 -49 94 -123c0 -105 -72 -196 -156 -196zM454 271c-64 0 -124 -93 -124 -187c0 -49 20 -73 60 -73c58 0 118 104 118 196c0 43 -18 64 -54 64zM175 451c-63 0 -123 -90 -123 -187c0 -49 20 -73 59 -73c61 0 119 107 119 195
c0 43 -18 65 -55 65z" />
    <glyph glyph-name="ampersand" unicode="&#x26;" horiz-adv-x="1004" 
d="M873 427c-12 0 -26 1 -41 4c-41 -35 -87 -92 -138 -170c-57 -87 -101 -146 -130 -176c51 -31 102 -53 152 -65c59 37 108 55 147 55c33 0 58 -15 58 -37c0 -33 -62 -59 -124 -59c-25 0 -50 3 -77 8c-35 -25 -87 -60 -155 -105c111 -29 192 -43 245 -43c29 0 59 6 89 17
l15 -15c-29 -25 -76 -37 -139 -37c-72 0 -162 14 -269 43c-92 -49 -183 -74 -272 -74c-119 0 -197 35 -197 92c0 55 66 92 166 92c91 0 139 -13 319 -64l157 103c-49 13 -96 35 -142 65c-63 -54 -130 -81 -201 -81c-95 0 -162 54 -162 133s47 133 163 190c-4 13 -6 27 -6 41
c0 85 60 148 144 148c51 0 84 -28 84 -70c0 -34 -25 -64 -76 -90l-98 -50c19 -61 66 -118 142 -172c25 27 68 85 130 174c48 69 93 120 134 154c-47 8 -75 12 -86 12c-31 0 -63 -21 -63 -45c21 -27 21 -28 21 -29c0 -9 -6 -14 -19 -14c-18 0 -33 20 -33 43
c0 48 53 86 115 86c17 0 55 -7 114 -20c26 15 52 23 78 23c25 0 38 -10 38 -30c0 -25 -28 -37 -83 -37zM856 43c-25 0 -56 -10 -93 -30c77 0 111 7 111 28c-2 1 -8 2 -18 2zM472 456c-54 0 -95 -58 -95 -135c93 46 126 74 126 115c0 13 -10 20 -31 20zM350 264
c-75 -43 -112 -91 -112 -146c0 -37 14 -104 109 -104c55 0 107 23 156 69c-73 55 -124 115 -153 181zM328 -104c-57 16 -110 24 -157 24c-56 0 -99 -22 -99 -54c0 -34 69 -60 161 -60c73 0 148 18 224 54z" />
    <glyph glyph-name="quotesingle" unicode="'" horiz-adv-x="144" 
d="M26 357l-6 6c28 14 54 55 54 64l-8 8c-6 5 -9 12 -9 20c0 29 17 57 41 57c17 0 26 -13 26 -38c0 -50 -31 -94 -92 -133c-10 2 -15 8 -15 19c3 0 3 0 9 -3z" />
    <glyph glyph-name="parenleft" unicode="(" horiz-adv-x="262" 
d="M292 544c-112 -38 -255 -332 -255 -531c0 -11 3 -29 9 -52c7 -23 10 -40 10 -51c-5 -5 -10 -7 -16 -7l-7 3c-22 35 -33 82 -33 143c0 325 239 519 280 519c10 0 15 -5 15 -16z" />
    <glyph glyph-name="parenright" unicode=")" horiz-adv-x="326" 
d="M15 -97c-10 0 -15 5 -15 16l3 8c112 38 255 332 255 531c0 11 -3 28 -10 50c-6 23 -9 39 -9 50c3 7 8 10 15 10l8 -3c22 -35 33 -82 33 -143c0 -325 -237 -519 -280 -519z" />
    <glyph glyph-name="asterisk" unicode="*" horiz-adv-x="202" 
d="M145 442c15 -7 22 -16 22 -28c0 -13 -7 -20 -22 -20c-7 0 -14 3 -21 8c0 -26 -7 -36 -24 -36c-16 0 -23 10 -23 35c-7 -5 -15 -8 -22 -8c-15 0 -22 7 -22 20s8 22 23 28c-16 7 -24 16 -24 28c0 13 7 19 22 19c7 0 14 -3 21 -8c0 26 7 36 24 36c16 0 23 -10 23 -36
c8 6 15 9 22 9c15 0 22 -6 22 -19c0 -12 -7 -21 -21 -28z" />
    <glyph glyph-name="plus" unicode="+" horiz-adv-x="298" 
d="M166 281v-1l82 1c9 0 14 -4 14 -13c0 -17 -10 -25 -29 -25h-67c2 -26 3 -53 3 -80c0 -10 -5 -15 -14 -15c-17 0 -26 7 -26 20v-3l1 78l-79 -3c-11 0 -16 5 -16 14c0 26 0 26 95 26l-3 79c0 9 7 14 22 14c17 0 17 0 17 -92z" />
    <glyph glyph-name="comma" unicode="," horiz-adv-x="96" 
d="M-22 -78l-6 6c28 14 54 55 54 64l-8 8c-6 5 -9 12 -9 20c0 29 17 57 41 57c17 0 26 -13 26 -38c0 -50 -31 -94 -92 -133c-10 2 -15 8 -15 19c3 0 3 0 9 -3z" />
    <glyph glyph-name="hyphen" unicode="-" horiz-adv-x="292" 
d="M237 205c-10 0 -30 1 -45 3c-1 0 -135 -3 -143 -4c-11 0 -16 5 -16 14c0 19 7 28 20 28c2 0 4 -1 6 -2l185 2c11 0 16 -4 16 -13c0 -19 -8 -28 -23 -28z" />
    <glyph glyph-name="period" unicode="." horiz-adv-x="85" 
d="M32 -11c-19 0 -29 10 -29 29c0 31 19 58 41 58c17 0 26 -11 26 -34c0 -27 -18 -53 -38 -53z" />
    <glyph glyph-name="slash" unicode="/" horiz-adv-x="187" 
d="M3 -111c-2 -6 -7 -9 -14 -9c-9 0 -14 5 -14 14c0 2 72 225 216 668c2 6 7 9 14 9c9 0 14 -5 14 -14c0 -2 -72 -225 -216 -668z" />
    <glyph glyph-name="zero" unicode="0" horiz-adv-x="470" 
d="M195 -24c-103 0 -175 80 -175 194c0 171 128 325 280 325c87 0 150 -84 150 -200c0 -170 -121 -319 -255 -319zM368 426c-21 27 -22 28 -72 33c-109 0 -213 -159 -213 -318c0 -86 35 -129 106 -129c82 0 205 151 205 333c0 32 -9 59 -26 81z" />
    <glyph glyph-name="one" unicode="1" horiz-adv-x="263" 
d="M19 5c3 3 19 44 94 252l54 152c-63 -54 -94 -98 -94 -133c0 -3 3 -13 7 -30c0 -9 -4 -14 -13 -14c-14 0 -28 36 -28 58c0 63 73 137 188 190c15 0 19 -3 19 -14l-158 -449c17 -3 29 -4 34 -4c22 0 37 7 56 26l1 3c11 0 17 -5 17 -14c0 -21 -42 -47 -69 -47
c-41 7 -54 9 -60 9c-22 0 -22 0 -32 -5c-11 0 -16 7 -16 20z" />
    <glyph glyph-name="two" unicode="2" horiz-adv-x="438" 
d="M224 46l68 -14c30 0 33 2 81 44c9 0 14 -5 14 -16c0 -42 -53 -77 -114 -77c-25 0 -61 8 -106 25c-35 -19 -66 -29 -93 -29c-25 0 -54 17 -54 37c0 23 39 49 72 49c22 0 51 -4 88 -11c96 74 175 214 175 313c0 59 -25 89 -76 89c-83 0 -164 -97 -164 -197
c0 -88 9 -100 48 -124c5 -5 8 -9 8 -14c0 -8 -4 -12 -12 -12c-59 0 -102 73 -102 158c0 126 99 223 229 223c77 0 132 -59 132 -135c0 -98 -77 -221 -194 -309zM82 27c-4 0 -25 -6 -25 -10c0 -3 7 -4 20 -4c15 0 30 3 46 10c-14 3 -28 4 -41 4z" />
    <glyph glyph-name="three" unicode="3" horiz-adv-x="364" 
d="M274 241c37 -32 56 -77 56 -134c0 -151 -166 -279 -357 -279c-184 0 -289 111 -289 129c0 10 5 15 14 15c5 0 40 -28 53 -41c65 -44 137 -66 217 -66c163 0 302 125 302 274c0 35 -10 62 -30 83c-26 -11 -53 -17 -81 -17c-44 0 -78 19 -78 43c0 23 30 39 72 39
c29 0 58 -8 88 -23c39 30 67 84 67 132c0 42 -29 69 -73 69c-53 0 -81 -24 -108 -95c0 -6 2 -15 7 -28c0 -11 -4 -16 -13 -16c-18 0 -34 37 -34 63c0 54 65 107 145 107c83 0 135 -40 135 -105c0 -59 -31 -109 -93 -150zM150 255c-17 0 -25 -3 -25 -8c0 -9 11 -13 33 -13
c15 0 31 3 48 10c-16 7 -35 11 -56 11z" />
    <glyph glyph-name="four" unicode="4" horiz-adv-x="437" 
d="M124 268c28 0 81 -10 158 -30c44 127 66 195 66 206c0 1 -1 3 -25 25c5 9 11 13 17 13c77 0 84 -1 84 -17l-84 -238c58 0 76 7 120 23c9 0 13 -4 13 -12c0 -22 -70 -47 -146 -51l-58 -169c17 -3 29 -4 36 -4c20 0 21 0 46 14c9 0 13 -4 13 -13c0 -15 -28 -31 -53 -31
l-78 8c-5 0 -12 -1 -17 -3c-10 0 -15 7 -15 20h7l-2 -2l2 -1l-5 5c9 20 30 80 62 180c-19 2 -42 7 -67 14c-55 16 -89 24 -102 24c-37 0 -48 -4 -88 -19c-10 0 -15 4 -15 13c0 5 3 10 8 13c64 38 169 171 210 288c4 11 11 16 20 16h34c9 0 14 -5 14 -14
c0 -48 -63 -135 -190 -262z" />
    <glyph glyph-name="five" unicode="5" horiz-adv-x="355" 
d="M323 420v-1l-173 1c-15 -32 -29 -62 -40 -89c27 17 56 25 87 25c80 0 137 -63 137 -152c0 -204 -165 -378 -385 -378c-91 0 -165 64 -165 103c0 9 4 13 11 13c5 0 11 -3 16 -10c45 -52 81 -68 145 -68c131 0 228 80 290 241c16 42 29 83 29 119c0 64 -28 96 -83 96
c-50 0 -90 -27 -120 -82c-4 -7 -9 -11 -14 -11c-10 0 -15 7 -15 21l88 227c4 5 10 7 18 7c89 -3 140 -4 203 -4c11 0 17 -4 17 -12s-26 -46 -46 -46z" />
    <glyph glyph-name="six" unicode="6" horiz-adv-x="391" 
d="M671 567c-3 0 -7 1 -11 3c-37 28 -91 42 -162 42c-138 0 -288 -95 -375 -239c27 16 56 24 85 24c93 0 155 -76 155 -188c0 -119 -93 -238 -194 -238c-105 0 -169 76 -169 193c0 258 248 477 501 477c98 0 186 -30 186 -60c0 -9 -5 -14 -16 -14zM206 361
c-99 0 -149 -72 -149 -215c0 -92 34 -138 101 -138c80 0 146 111 146 233c0 101 -60 120 -98 120z" />
    <glyph glyph-name="seven" unicode="7" horiz-adv-x="356" 
d="M107 463c25 13 51 19 79 19c50 -7 102 -15 108 -15c16 0 29 5 90 29c8 0 12 -4 12 -11c0 -3 -5 -11 -14 -22c-35 -42 -52 -81 -98 -209c-111 -301 -241 -433 -445 -433c-67 0 -163 38 -163 65c0 9 5 14 15 14c3 0 6 -1 11 -4c37 -30 83 -45 136 -45c161 0 242 86 365 367
c41 95 79 166 112 214c-36 -16 -63 -24 -81 -24c-6 0 -30 3 -97 13c-37 0 -52 -24 -83 -104c-3 -5 -8 -8 -13 -8c-9 0 -13 5 -13 16c0 7 17 54 50 143c3 8 8 12 14 12c9 0 14 -6 15 -17z" />
    <glyph glyph-name="eight" unicode="8" horiz-adv-x="411" 
d="M287 305c59 -55 88 -114 88 -177c0 -94 -89 -158 -179 -158c-103 0 -168 52 -168 134c0 71 54 135 162 192c-33 29 -49 58 -49 87c0 70 55 114 143 114c67 0 111 -25 132 -74c66 56 99 113 99 170c0 36 -1 37 -24 84c0 7 4 11 12 11c31 0 61 -40 61 -78
c0 -112 -102 -224 -277 -305zM272 463c-42 0 -77 -28 -77 -61c0 -17 11 -30 64 -74c67 32 101 51 103 58c0 51 -29 77 -90 77zM220 272c-80 -44 -129 -112 -129 -177c0 -56 36 -89 95 -89c73 0 127 48 127 113c0 62 -20 95 -93 153z" />
    <glyph glyph-name="nine" unicode="9" horiz-adv-x="424" 
d="M-111 -307c-69 0 -129 20 -178 61c-23 19 -34 33 -34 44c0 10 5 15 16 15c5 -2 12 -8 21 -17c45 -47 105 -71 180 -71c99 0 265 53 388 301c-36 -24 -73 -36 -110 -36c-92 0 -148 66 -148 172c0 120 103 223 223 223c103 0 155 -57 155 -172c0 -260 -245 -520 -513 -520z
M260 351c-92 0 -174 -108 -174 -226c0 -55 34 -101 88 -101c90 0 173 91 173 206c0 81 -29 121 -87 121z" />
    <glyph glyph-name="colon" unicode=":" horiz-adv-x="130" 
d="M74 141c-19 0 -29 10 -29 29c0 31 19 58 41 58c18 0 27 -11 27 -34c0 -28 -18 -53 -39 -53zM29 -9c-19 0 -29 10 -29 29c0 29 17 57 41 57c17 0 26 -11 26 -33c0 -30 -17 -53 -38 -53z" />
    <glyph glyph-name="semicolon" unicode=";" horiz-adv-x="141" 
d="M85 141c-19 0 -28 10 -28 29c0 31 19 58 41 58c17 0 26 -11 26 -34c0 -28 -18 -53 -39 -53zM-22 -78l-6 6c28 14 54 55 54 64l-8 8c-6 5 -9 12 -9 20c0 29 17 57 41 57c17 0 26 -13 26 -38c0 -50 -31 -94 -92 -133c-10 2 -15 8 -15 19c3 0 3 0 9 -3z" />
    <glyph glyph-name="less" unicode="&#x3c;" horiz-adv-x="174" 
d="M97 148l17 -88l-24 -12l-48 104l88 98l22 -11z" />
    <glyph glyph-name="equal" unicode="=" horiz-adv-x="309" 
d="M233 267v-1l-37 1c-84 -4 -121 -5 -138 -5c-10 0 -15 5 -15 15c0 19 6 28 19 28c3 0 5 -1 7 -2l185 2c11 0 16 -4 16 -13c0 -17 -12 -25 -37 -25zM252 211c-213 0 -213 0 -213 28c0 10 5 14 17 14h192c13 0 19 -10 19 -28c0 -9 -5 -14 -15 -14z" />
    <glyph glyph-name="greater" unicode="&#x3e;" horiz-adv-x="174" 
d="M45 51l-23 11l55 90l-17 89l26 9l46 -102z" />
    <glyph glyph-name="question" unicode="?" horiz-adv-x="265" 
d="M152 228c-38 -23 -73 -48 -73 -57l9 -8c5 -5 8 -12 8 -19c0 -29 -20 -58 -41 -58c-17 0 -26 13 -26 38c0 35 17 68 50 100c102 79 130 106 130 131c0 32 -32 58 -68 58c-31 0 -68 -20 -68 -38c0 2 1 4 2 4c3 0 22 -27 22 -38c0 -37 -11 -56 -34 -56c-21 0 -32 18 -32 55
c0 59 48 105 110 105c81 0 121 -31 121 -93c0 -42 -29 -74 -110 -124zM29 -9c-19 0 -29 10 -29 29c0 31 19 58 41 58c17 0 26 -11 26 -34c0 -27 -18 -53 -38 -53z" />
    <glyph glyph-name="at" unicode="@" horiz-adv-x="535" 
d="M373 76c-31 0 -51 15 -61 45c-31 -29 -66 -44 -105 -44c-55 0 -82 29 -82 86c0 105 88 188 194 188c28 0 51 -8 68 -23c16 12 25 18 27 18c10 0 11 -2 11 -21c-44 -107 -66 -172 -66 -195c0 -15 5 -23 14 -23c49 0 101 75 101 149c0 95 -69 159 -172 159
c-24 0 -51 -7 -81 -20c-89 -40 -134 -109 -134 -208c0 -85 44 -142 133 -172c25 -9 47 -13 64 -13c58 0 109 17 154 50c4 2 7 3 10 3c11 0 16 -5 16 -15c0 -13 -72 -69 -180 -69c-156 0 -252 87 -252 227c0 151 123 247 270 247c123 0 202 -74 202 -188
c0 -98 -60 -181 -131 -181zM322 320c-71 0 -149 -89 -149 -169c0 -29 15 -43 44 -43c24 0 55 18 92 53c29 74 44 119 44 135s-10 24 -31 24z" />
    <glyph glyph-name="A" unicode="A" horiz-adv-x="578" 
d="M591 478c12 0 18 -6 18 -19l-153 -438l56 -9c32 0 40 5 42 27c1 6 4 9 11 9c10 0 15 -6 15 -17c0 -32 -22 -48 -66 -48l-91 9c-29 0 -31 0 -31 15l72 201h-80c-47 -77 -88 -133 -123 -166l195 -114c72 -42 146 -63 221 -63c37 0 71 7 103 21c5 2 9 3 12 3
c9 0 14 -5 14 -14c0 -23 -27 -28 -166 -45c-121 0 -216 42 -414 183c-35 -24 -72 -36 -111 -36c-61 0 -115 30 -115 86c0 37 24 55 72 55c36 0 86 -18 149 -53c19 22 51 68 95 139c71 115 146 198 224 249c-31 7 -64 10 -97 10c-165 0 -330 -119 -330 -238
c0 -45 24 -81 55 -81c11 0 17 -5 17 -15s-6 -15 -17 -15c-53 0 -90 49 -90 116c0 145 152 266 331 266c19 0 48 -4 87 -12c39 -7 68 -11 87 -11c3 1 8 3 15 8c0 -10 -2 -15 -6 -15zM402 238h72l66 181c-47 -39 -87 -94 -138 -181zM82 87c-19 0 -37 -12 -37 -27
c0 -28 31 -49 69 -49c27 0 53 9 77 27c-49 33 -85 49 -109 49z" />
    <glyph glyph-name="B" unicode="B" horiz-adv-x="665" 
d="M358 34v3c13 0 19 -6 19 -17c-11 -23 -32 -35 -63 -35c-37 3 -58 5 -65 5s-24 -2 -55 -7c-9 0 -13 4 -13 13c0 12 3 14 32 26c5 5 14 28 69 181l91 256c-172 -8 -325 -125 -325 -244c0 -83 30 -100 124 -117c-16 -12 -27 -18 -32 -18c-75 0 -140 53 -140 152
c0 146 169 259 388 259c143 0 237 -71 237 -173c0 -57 -24 -99 -71 -124c65 -53 97 -121 97 -202c0 -151 -104 -254 -259 -254c-138 0 -252 92 -252 200c0 13 5 20 15 20c9 0 16 -16 21 -49c23 -77 122 -137 209 -137c119 0 203 100 203 236c0 69 -24 126 -71 171
c-14 -3 -27 -5 -39 -5c-44 0 -84 21 -84 44c0 19 14 29 42 29c23 0 49 -8 78 -25c33 22 50 58 50 108c0 75 -45 118 -134 128l-151 -440c1 0 26 -1 34 -2c20 0 34 6 43 18h2zM469 210l-38 10c0 -4 13 -7 38 -10z" />
    <glyph glyph-name="C" unicode="C" horiz-adv-x="369" 
d="M381 474c0 5 6 20 22 20c9 0 14 -5 14 -14c-49 -138 -49 -138 -62 -138c-10 0 -15 5 -15 16l12 60c0 31 -20 47 -60 47c-111 0 -235 -190 -235 -363c0 -144 93 -239 217 -239c70 0 127 27 170 81c5 6 10 9 16 9c9 0 13 -4 13 -13c0 -34 -97 -107 -193 -107
c-168 0 -280 116 -280 295c0 192 142 370 289 370c21 0 52 -8 92 -24z" />
    <glyph glyph-name="D" unicode="D" horiz-adv-x="632" 
d="M369 -72c-60 0 -144 43 -144 73c0 34 18 69 36 69c5 0 11 -4 18 -12c-3 -9 -5 -17 -5 -22c0 -46 43 -78 96 -78c95 0 184 134 184 264c0 117 -71 226 -182 243l-111 -322c-35 -103 -57 -154 -65 -154c-15 2 -24 3 -30 3c-4 0 -12 -1 -32 -5c-9 0 -13 4 -13 13
c2 10 7 15 14 15c1 2 8 5 18 11c3 2 14 31 35 88l127 353c-114 -9 -195 -66 -242 -172c-17 -39 -26 -75 -26 -108c0 -84 35 -103 79 -103c4 0 10 -3 17 -8c-6 -13 -16 -20 -30 -20c-70 0 -113 58 -113 152c0 167 141 290 330 290c149 0 281 -133 281 -275
c0 -169 -99 -295 -242 -295z" />
    <glyph glyph-name="E" unicode="E" 
d="M386 469c3 12 10 18 21 18c10 0 15 -4 15 -13c-40 -109 -41 -109 -51 -109c-9 0 -14 5 -14 16l4 28c0 37 -21 56 -64 56c-55 0 -98 -54 -98 -120c0 -21 5 -38 14 -52h26c49 0 74 -13 74 -38c0 -17 -14 -26 -42 -26c-27 0 -52 9 -75 26c-82 -28 -136 -112 -136 -210
c0 -112 71 -185 180 -185c80 0 133 26 160 79c4 8 9 12 15 12c9 0 13 -5 13 -14c0 -52 -91 -110 -184 -110c-135 0 -244 98 -244 220c0 115 62 203 168 236c-17 22 -26 46 -26 71c0 83 63 144 149 144c25 0 57 -10 95 -29zM279 262c-1 2 -10 3 -26 3c8 -2 17 -3 26 -3z" />
    <glyph glyph-name="F" unicode="F" horiz-adv-x="562" 
d="M272 111c11 0 17 -5 17 -13c-7 -20 -62 -40 -100 -40c-89 0 -167 54 -167 157c0 163 150 268 328 268c112 -7 144 -9 160 -9c30 0 33 1 116 24c7 0 11 -4 11 -12c-3 -5 -9 -12 -18 -19c-46 -36 -57 -58 -129 -214c88 -1 90 -2 90 -13c0 -13 -7 -20 -21 -20
c-15 0 -42 1 -84 3c-135 -275 -289 -421 -580 -421c-59 0 -126 14 -201 43c-31 12 -46 23 -46 33c0 11 6 17 18 17c3 0 7 -1 11 -4c71 -35 144 -53 219 -53c230 0 373 110 519 385h-57c-10 0 -15 5 -15 14c0 13 6 19 18 19c35 -2 54 -3 69 -3c62 121 84 159 112 192
c-30 0 -35 0 -171 4c-163 0 -294 -102 -294 -230c0 -110 74 -131 123 -131c11 0 35 8 72 23z" />
    <glyph glyph-name="G" unicode="G" horiz-adv-x="503" 
d="M269 188c-11 0 -17 4 -17 13c0 21 39 35 84 35c39 -3 100 -6 101 -6c20 0 34 6 41 9c9 0 14 -4 14 -13c-18 -51 -25 -73 -28 -82c-54 -178 -73 -223 -139 -283c-48 -45 -100 -67 -155 -67c-89 0 -155 58 -155 83c0 15 29 63 41 63c8 0 10 0 10 -21c0 -61 33 -91 108 -91
c79 0 143 63 192 190c-37 -26 -79 -39 -127 -39c-134 0 -207 69 -207 196c0 179 132 311 312 311c55 0 108 -13 160 -39c0 15 12 29 20 29c11 0 16 -7 16 -20c-35 -111 -36 -114 -48 -114c-11 0 -16 8 -16 25c0 49 -56 87 -125 87c-109 0 -197 -70 -244 -196
c-13 -35 -20 -65 -20 -91c0 -96 62 -158 158 -158c57 0 94 19 142 73c25 85 31 106 35 114c-3 0 -9 0 -105 8c-11 0 -26 -5 -45 -14z" />
    <glyph glyph-name="H" unicode="H" horiz-adv-x="572" 
d="M349 467c-124 -2 -212 -63 -263 -182c-17 -39 -25 -71 -25 -96c0 -37 22 -67 66 -89c6 -3 9 -7 9 -14c0 -12 -3 -15 -17 -15c-36 15 -108 57 -108 145c0 143 161 282 334 282c46 0 69 -7 69 -22c0 -4 -3 -8 -8 -12c-31 -22 -67 -93 -110 -214h173
c103 284 232 400 449 400c85 0 152 -40 152 -75c0 -9 -4 -14 -13 -14c-7 0 -11 3 -14 8c-27 33 -62 49 -107 49c-161 0 -298 -90 -347 -228l-130 -367l49 -7c3 0 4 0 38 19c7 -3 10 -7 10 -12c0 -22 -29 -40 -65 -40c-61 9 -62 9 -67 9c-3 0 -11 -2 -26 -7
c-9 0 -14 5 -14 14c0 3 30 95 40 123l35 96h-174c-107 -299 -229 -413 -428 -413c-85 0 -154 24 -207 72c-25 23 -38 41 -38 54c0 10 5 15 14 15c6 0 12 -5 18 -15c38 -61 106 -92 203 -92c215 0 276 123 417 494c26 61 54 105 85 134z" />
    <glyph glyph-name="I" unicode="I" horiz-adv-x="324" 
d="M361 467c-124 -2 -212 -63 -263 -182c-17 -39 -25 -71 -25 -96c0 -37 22 -67 66 -88c6 -3 9 -8 9 -15c0 -12 -3 -15 -17 -15c-46 13 -108 65 -108 145c0 143 161 282 334 282c46 0 69 -7 69 -22c0 -5 -3 -9 -8 -12c-31 -19 -54 -52 -71 -101
c-141 -423 -248 -558 -478 -558c-122 0 -245 74 -245 126c0 10 5 15 14 15c6 0 12 -5 18 -15c38 -61 106 -92 203 -92c184 0 281 105 383 404c37 108 76 183 119 224z" />
    <glyph glyph-name="J" unicode="J" horiz-adv-x="351" 
d="M361 467c-124 -3 -212 -63 -263 -182c-17 -39 -25 -71 -25 -96c0 -36 22 -66 67 -89c5 -2 8 -7 8 -14c0 -12 -3 -15 -17 -15c-65 22 -108 78 -108 145c0 143 161 282 334 282c46 0 69 -7 69 -22c0 -5 -3 -9 -8 -12c-32 -23 -63 -82 -108 -206h50c10 0 15 -4 15 -12
c0 -14 -7 -21 -21 -21c-11 0 -30 1 -55 4c-107 -305 -226 -424 -430 -424c-145 0 -245 90 -245 126c0 10 5 15 14 15c6 0 12 -5 18 -15c38 -61 106 -92 203 -92c177 0 272 99 379 390h-43c-10 0 -15 5 -15 14c0 13 6 19 18 19c25 -2 40 -3 51 -3c40 114 69 168 112 208z" />
    <glyph glyph-name="K" unicode="K" horiz-adv-x="540" 
d="M174 96l3 3l6 -9c0 -22 -17 -33 -52 -33c-71 0 -116 58 -116 148c0 161 157 282 357 282c19 0 29 -5 29 -15c0 -3 -24 -72 -71 -209c91 7 160 51 208 134c13 22 19 39 19 51c0 1 -1 5 -8 23c0 9 5 13 16 13h44c11 0 17 -5 17 -15c-30 -113 -130 -203 -258 -232
c234 -315 357 -407 560 -407c81 0 138 21 172 64c3 3 7 5 11 5c11 0 16 -5 16 -14c0 -26 -91 -90 -214 -90c-157 0 -314 72 -419 193c-31 35 -74 92 -129 170c-21 30 -38 51 -49 63l-73 -213c-2 -6 -7 -12 -14 -18h-69c-9 0 -13 5 -13 14c2 4 8 8 19 12c31 13 31 14 171 439
c-165 -15 -278 -147 -278 -272c0 -65 24 -98 72 -98c10 0 22 4 37 11h6z" />
    <glyph glyph-name="L" unicode="L" horiz-adv-x="231" 
d="M249 459c-98 -23 -193 -129 -193 -215c0 -26 2 -28 43 -64c0 -7 -5 -11 -15 -13c-40 0 -67 37 -67 92c0 111 127 232 285 232c9 0 14 -5 14 -14c0 -7 -2 -12 -7 -14c-33 -27 -59 -73 -80 -139c-62 -200 -71 -221 -150 -295c53 -3 113 -17 178 -42
c362 -143 414 -163 505 -163c57 0 76 7 124 33c12 0 15 -4 15 -19c-35 -37 -88 -55 -160 -55c-115 0 -215 30 -407 120c-185 86 -206 89 -317 89c-11 0 -17 6 -17 17c0 4 3 8 8 13c61 39 73 69 168 316c23 51 47 92 73 121z" />
    <glyph glyph-name="M" unicode="M" horiz-adv-x="758" 
d="M56 96c0 -40 9 -70 55 -70c110 0 178 111 295 447c-178 -4 -330 -120 -330 -247c0 -56 17 -90 51 -102c2 -1 6 -5 13 -12c-8 -8 -15 -12 -21 -13c-67 27 -90 63 -90 143c0 123 83 204 248 245c43 11 78 16 104 16c97 -7 99 -7 99 -19c-18 -67 -18 -68 -18 -70
c0 -105 7 -189 21 -250c63 193 110 305 142 338v-6c64 5 67 5 69 6c11 0 16 -5 16 -16c0 -8 -15 -14 -45 -17c0 -404 66 -646 313 -745c43 -17 83 -26 119 -26c79 0 123 37 123 115c0 3 2 7 7 12c16 0 35 -27 35 -51c0 -67 -57 -111 -143 -111c-92 0 -182 30 -271 89
c-166 111 -244 313 -244 626c-66 -141 -99 -231 -99 -270c0 -8 2 -11 18 -42c0 -17 -14 -52 -25 -52c-39 0 -96 179 -96 358c-101 -285 -172 -383 -297 -383c-50 0 -103 33 -103 66c40 68 40 68 47 68c9 0 13 -5 13 -16z" />
    <glyph glyph-name="N" unicode="N" horiz-adv-x="589" 
d="M1152 538c-3 0 -7 1 -10 4c-39 34 -90 51 -153 51c-224 0 -400 -202 -481 -552c53 -111 131 -166 234 -166c51 0 62 10 96 41c10 -5 10 -5 19 -14c-19 -42 -57 -59 -137 -59c-195 0 -335 225 -335 519c-9 -26 -19 -53 -28 -82c-58 -180 -155 -288 -259 -288
c-51 0 -100 34 -100 65c9 9 21 28 34 56c3 7 7 10 12 10c9 0 13 -5 13 -16c-3 -6 -3 -6 -6 -31c0 -25 25 -47 53 -47c109 0 164 94 285 431c-139 -3 -236 -55 -293 -155c-17 -29 -25 -57 -25 -83c0 -54 16 -87 48 -99c3 -1 7 -5 13 -11c-7 -8 -13 -12 -19 -13
c-64 25 -88 61 -88 138c0 120 80 199 239 238c41 10 75 15 101 15c46 -5 65 -7 72 -7c6 2 8 2 9 2c10 0 15 -5 15 -14c-9 -33 -17 -61 -17 -67c0 -125 15 -229 44 -314c86 351 251 537 476 537c94 0 201 -42 201 -76c0 -9 -4 -13 -13 -13z" />
    <glyph glyph-name="O" unicode="O" horiz-adv-x="494" 
d="M187 -20c-99 0 -172 86 -172 201c0 151 128 305 255 305c8 0 12 -4 12 -12c0 -7 -4 -11 -12 -13c-98 -21 -203 -179 -203 -306c0 -88 51 -144 132 -144c91 0 161 58 211 173c17 40 26 79 26 117c0 89 -45 154 -107 154c-57 0 -108 -56 -108 -118c0 -13 1 -22 4 -27l5 -9
c0 -9 -4 -14 -12 -14c-24 0 -42 31 -42 63c0 74 69 134 152 134c97 0 167 -81 167 -192c0 -167 -135 -312 -308 -312z" />
    <glyph glyph-name="P" unicode="P" horiz-adv-x="597" 
d="M399 33c11 0 17 -6 17 -17c0 -21 -37 -35 -68 -35c-84 8 -90 9 -100 9c-5 0 -22 -3 -49 -9c-8 0 -12 6 -12 17l16 17c6 5 7 5 65 168l95 266c-180 -14 -305 -143 -305 -291c0 -76 50 -91 83 -91c11 0 16 -6 16 -17s-5 -16 -16 -16c-69 0 -126 55 -126 141
c0 188 150 309 372 309c116 0 219 -57 219 -166c0 -97 -86 -184 -181 -184c-37 0 -70 14 -99 43l-53 -157c19 0 25 -1 47 -5c17 -3 30 -4 39 -4s21 6 36 18c0 -2 0 -2 -1 -3h5v7zM420 448c-68 -196 -71 -205 -71 -226c0 -38 22 -57 66 -57c67 0 131 88 131 180
c0 60 -42 94 -126 103z" />
    <glyph glyph-name="Q" unicode="Q" horiz-adv-x="480" 
d="M716 -192c-111 0 -196 26 -451 124c-87 33 -145 50 -174 50c-45 0 -68 6 -68 19c0 9 9 13 26 13c34 0 79 14 134 42c143 73 215 167 215 282c0 77 -45 128 -114 128c-26 0 -55 -8 -87 -24c-98 -49 -147 -128 -147 -239c0 -62 46 -89 78 -89c3 0 8 1 17 3
c7 0 11 -4 11 -11c0 -14 -12 -21 -35 -21c-71 0 -121 60 -121 153c0 148 118 261 271 261c107 0 181 -73 181 -177c0 -132 -110 -247 -296 -312c82 -15 102 -20 235 -66c185 -63 312 -95 382 -95c49 0 93 6 154 30c9 0 14 -5 14 -14c0 -28 -116 -57 -225 -57z" />
    <glyph glyph-name="R" unicode="R" horiz-adv-x="591" 
d="M389 145c34 -22 59 -39 74 -52c225 -192 374 -245 499 -245c45 0 45 0 114 23c7 -3 10 -8 10 -14c-11 -30 -68 -45 -171 -45c-165 0 -334 91 -571 311c-15 14 -31 28 -48 41c-39 -116 -62 -173 -70 -174h-46c-7 -1 -13 -2 -16 -2c-9 0 -13 5 -13 13c1 6 3 12 6 19
c27 0 27 0 91 178l94 264c-123 -9 -209 -69 -258 -181c-18 -41 -27 -78 -27 -112c0 -52 26 -83 69 -83c11 0 17 -5 17 -16c0 -9 -6 -14 -17 -14c-47 0 -126 23 -126 148c0 155 168 288 354 288c134 0 235 -68 235 -171c0 -96 -104 -176 -200 -176zM399 457
c-12 -30 -42 -116 -90 -257c19 -16 42 -24 69 -24c81 0 148 71 148 159c0 63 -48 109 -127 122z" />
    <glyph glyph-name="S" unicode="S" horiz-adv-x="741" 
d="M781 357c-3 -6 -8 -9 -13 -9c-11 0 -17 6 -17 19c2 12 2 14 2 15c0 63 -15 79 -72 79c-53 0 -91 -46 -91 -103c0 -17 10 -40 31 -69c77 -107 96 -147 96 -216c0 -174 -150 -294 -363 -294c-138 0 -240 75 -251 184c-39 -22 -58 -47 -58 -74c0 -5 6 -15 17 -31
c0 -13 -6 -19 -17 -19c-16 0 -37 32 -37 54c0 39 31 75 94 110c15 142 118 251 289 251c93 0 140 -23 140 -68c0 -70 -71 -104 -287 -167c-44 -13 -80 -27 -108 -40c7 -104 85 -156 233 -156c160 0 294 105 294 238c0 68 -1 71 -96 207c-24 35 -36 65 -36 90
c0 85 58 139 149 139c42 0 75 -11 99 -32l7 13c6 11 12 17 17 17c12 0 18 -8 18 -25zM392 219c-116 0 -227 -86 -253 -197c42 19 105 43 189 74c91 33 137 63 137 90c0 22 -24 33 -73 33z" />
    <glyph glyph-name="T" unicode="T" horiz-adv-x="379" 
d="M485 454c-28 -23 -57 -67 -88 -130c-117 -251 -164 -340 -287 -427c-91 -63 -201 -95 -331 -95c-71 0 -158 20 -236 60c-7 4 -11 9 -11 16c0 11 6 17 18 17c2 0 6 -1 11 -4c68 -35 141 -53 219 -53c262 0 381 111 600 529c18 34 36 62 55 83c-194 -5 -292 -11 -351 -90
c-13 -18 -20 -34 -20 -47c0 -33 6 -41 36 -65c11 -9 17 -18 17 -26c0 -10 -5 -15 -15 -15c-36 0 -76 55 -76 117c0 108 85 144 193 160c21 3 110 9 269 17c198 11 225 32 313 102c3 3 7 4 12 4c9 0 14 -5 14 -15c-25 -50 -167 -120 -342 -138z" />
    <glyph glyph-name="U" unicode="U" horiz-adv-x="445" 
d="M146 444c-31 3 -47 4 -47 5h2c-16 0 -29 -7 -73 -32c-9 0 -14 4 -14 13c0 24 56 59 102 59l72 -12c2 0 9 1 50 12c11 0 17 -5 17 -14c0 -3 -11 -12 -32 -28c-105 -80 -159 -167 -159 -300c0 -83 33 -124 99 -124c128 0 240 188 240 419c0 96 -27 148 -83 171
c-7 2 -10 6 -10 13c0 9 5 13 14 13c13 0 28 -8 47 -23c56 -46 84 -126 84 -241c0 -192 -152 -387 -292 -387c-109 0 -163 69 -163 207c0 81 72 202 146 249z" />
    <glyph glyph-name="V" unicode="V" horiz-adv-x="372" 
d="M18 445v-3c-12 0 -18 5 -18 14c0 27 31 41 93 41c35 0 52 -4 52 -13c0 -4 -2 -8 -6 -12c-17 -18 -33 -72 -33 -110c35 -184 39 -204 39 -232c0 -27 -4 -56 -11 -87c139 76 240 276 240 473c0 110 -61 210 -138 210c-1 0 -8 -1 -29 -4c-9 0 -14 4 -14 12c0 15 13 22 39 22
c23 0 49 -8 76 -24c77 -45 115 -130 115 -255c0 -324 -295 -489 -334 -489c-10 0 -15 5 -15 14c15 65 16 70 16 119c0 25 -8 61 -23 109s-22 85 -22 110c0 41 12 83 37 127c-36 0 -53 -5 -62 -22h-2z" />
    <glyph glyph-name="W" unicode="W" horiz-adv-x="573" 
d="M327 42c149 97 241 278 241 474c0 110 -64 210 -138 210c-9 -1 -24 -4 -30 -4c-9 0 -14 4 -14 12c0 15 13 22 39 22c23 0 49 -8 76 -24c77 -45 116 -130 116 -255c0 -324 -295 -489 -334 -489c-11 0 -16 5 -16 14c0 7 6 42 16 97c-58 -58 -121 -109 -136 -109
c-9 0 -14 5 -14 15c0 5 2 10 7 15c4 7 6 30 6 68c0 29 -9 71 -28 126s-28 97 -28 126c0 70 38 142 56 142c7 0 11 -6 11 -16h-2v-5c-1 0 -43 -4 -51 -6l-48 6c-8 0 -21 -9 -38 -26c-10 0 -18 2 -18 13c0 26 38 49 80 49c38 -4 55 -5 63 -5c5 0 19 2 44 7c7 -3 10 -7 10 -12
c0 -4 -3 -9 -8 -14c-24 -23 -36 -59 -36 -110c0 -30 7 -74 22 -133c22 -84 22 -99 22 -163c31 27 60 54 86 83c-44 160 -44 165 -44 190c0 47 12 89 37 128c-31 -3 -40 -6 -67 -26c-10 0 -15 5 -15 14c0 22 31 39 93 41c35 0 52 -4 52 -13c0 -4 -2 -8 -6 -13
c-22 -21 -33 -58 -33 -109l30 -154c47 67 70 131 70 191c0 39 -8 62 -23 69c-9 4 -13 9 -13 14c0 10 15 15 46 15c36 0 46 -14 46 -63c0 -87 -39 -179 -118 -276v-28c0 -32 -4 -61 -11 -88z" />
    <glyph glyph-name="X" unicode="X" horiz-adv-x="388" 
d="M446 444l-24 4c-54 0 -126 -66 -215 -197c43 -143 75 -214 96 -214c3 0 10 11 19 32c13 29 22 44 29 44c10 0 15 -5 15 -16c-38 -94 -43 -109 -43 -110c-3 -12 -10 -18 -21 -18c-50 0 -97 71 -140 212c-179 -278 -279 -362 -451 -362c-84 0 -159 26 -159 52
c0 7 4 11 12 11c57 -24 73 -30 116 -30c146 0 283 115 469 377c-39 150 -46 172 -56 172c-5 0 -13 -10 -22 -29c-11 -23 -20 -35 -26 -35c-10 0 -15 5 -15 15c0 5 15 42 45 110c2 7 7 11 15 11c30 0 56 -28 79 -85l26 -94c92 122 168 183 228 183c25 0 38 -7 38 -21
c0 -8 -5 -12 -15 -12z" />
    <glyph glyph-name="Y" unicode="Y" horiz-adv-x="501" 
d="M-257 -23c1 -1 3 -3 5 -6c-3 -7 -13 -31 -13 -45c0 -77 75 -123 199 -123c154 0 284 76 390 229c-45 -30 -92 -45 -143 -45c-88 0 -148 67 -148 167c0 116 99 240 255 312c-119 -8 -234 -91 -234 -159c0 -5 7 -19 15 -35c0 -10 -4 -15 -13 -15c-19 0 -37 31 -37 65
c0 93 123 174 280 174c57 0 85 -5 85 -16c0 -7 -3 -12 -9 -14c-147 -47 -278 -203 -278 -331c0 -71 34 -113 91 -113c62 0 162 57 197 112c44 69 128 322 128 326c-11 8 -18 14 -23 22c7 7 34 10 81 11c9 0 14 -5 14 -16c-168 -514 -331 -707 -630 -707
c-168 0 -267 53 -267 143c0 50 26 71 62 71z" />
    <glyph glyph-name="Z" unicode="Z" horiz-adv-x="417" 
d="M1006 -135l-2 -2v7c13 0 19 -5 19 -15c-16 -33 -86 -58 -160 -58c-121 0 -207 26 -408 120c-129 60 -224 90 -284 90c-21 0 -24 0 -157 -21c-6 0 -11 5 -16 14c3 3 8 7 15 12c79 22 142 75 238 217h-31c-10 0 -15 5 -15 14c0 13 6 19 18 19c15 -1 35 -3 46 -3l75 111
c21 32 48 60 79 85c-131 0 -175 -10 -252 -61c-69 -46 -104 -103 -104 -172c0 -30 13 -52 40 -65c9 0 13 -5 13 -14s-4 -13 -13 -13c-6 0 -16 4 -31 11c-44 22 -66 58 -66 107c0 130 149 242 328 242c143 0 152 -4 171 -21c-3 -7 -7 -11 -10 -14c-67 -50 -91 -88 -152 -197
h38c10 0 15 -4 15 -12c0 -14 -7 -21 -21 -21c-9 0 -25 1 -50 3c-49 -81 -107 -144 -174 -190h27v5c63 0 128 -14 197 -42c313 -130 417 -164 505 -164c61 0 87 13 154 52l-29 -30z" />
    <glyph glyph-name="bracketleft" unicode="[" horiz-adv-x="311" 
d="M130 -65c10 0 15 -6 15 -18l-7 -7c-11 -1 -92 -4 -118 -5c-9 0 -13 4 -13 13c25 68 26 72 78 234l103 317c21 66 22 76 22 90c0 9 4 13 12 13c101 -2 124 -2 124 -21c0 -9 -5 -13 -16 -13l-64 2c0 -19 -7 -39 -131 -419l-59 -188z" />
    <glyph glyph-name="backslash" unicode="\" horiz-adv-x="348" 
d="M294 -94c-7 0 -12 3 -14 9l-215 666c0 11 5 16 14 16c7 0 12 -3 14 -9l215 -666c0 -11 -5 -16 -14 -16z" />
    <glyph glyph-name="bracketright" unicode="]" horiz-adv-x="354" 
d="M338 552c-16 -33 -19 -43 -77 -227l-103 -316c-18 -55 -22 -68 -22 -91c0 -9 -5 -13 -15 -13c-99 2 -121 2 -121 21c0 9 5 13 16 13l64 -2c0 13 43 153 130 418l62 190l-6 -2l-52 -1h2c-9 0 -15 7 -18 20c17 7 39 7 104 7c8 0 15 1 21 3c13 0 15 -3 15 -20z" />
    <glyph glyph-name="asciicircum" unicode="^" horiz-adv-x="233" 
d="M195 473c-14 11 -40 32 -78 63c-50 -42 -77 -63 -81 -63c-9 0 -13 4 -13 12c0 12 83 98 94 98c4 0 8 -2 13 -7l77 -79c2 -4 3 -7 3 -10c0 -9 -5 -14 -15 -14z" />
    <glyph glyph-name="underscore" unicode="_" horiz-adv-x="441" 
d="M419 -95c-24 3 -32 4 -93 4c-40 0 -125 -1 -321 -5c-15 0 -23 5 -23 14c0 15 18 27 32 27h305l120 3c13 0 19 -4 19 -14c0 -15 -20 -29 -39 -29z" />
    <glyph glyph-name="grave" unicode="`" horiz-adv-x="281" 
d="M67 487l-79 90h61l41 -79z" />
    <glyph glyph-name="a" unicode="a" horiz-adv-x="330" 
d="M188 17c-33 -23 -68 -35 -107 -35c-54 0 -81 20 -81 61c0 103 155 141 239 153c12 32 18 51 18 56c0 31 -4 37 -38 37c-66 0 -107 -35 -107 -97c0 -13 -6 -19 -19 -19c-16 0 -33 23 -33 46c0 53 86 100 154 100c65 0 95 -24 95 -73c-1 -21 -11 -57 -30 -107
c-19 -49 -28 -84 -28 -105c0 -1 2 -2 7 -2c11 0 22 6 68 31c8 0 12 -5 12 -14c0 -25 -85 -60 -114 -60c-21 0 -33 9 -36 28zM64 47c0 -20 10 -30 29 -30c35 0 70 18 105 53l29 88c-98 -17 -163 -60 -163 -111z" />
    <glyph glyph-name="b" unicode="b" horiz-adv-x="354" 
d="M590 539c-4 0 -7 1 -10 3c-23 16 -51 24 -84 24c-151 0 -262 -87 -334 -261c19 8 38 12 57 12c72 0 121 -47 121 -116c0 -118 -92 -219 -198 -219c-33 0 -61 9 -84 28c-12 -19 -23 -20 -75 -21c-10 0 -15 4 -15 13c0 7 10 17 31 30c8 9 24 51 47 126
c97 309 224 440 433 440c67 0 128 -21 128 -45c0 -9 -6 -14 -17 -14zM227 285c-32 0 -61 -13 -88 -39c-15 -39 -36 -99 -63 -180c3 -33 23 -50 60 -50c69 0 145 99 145 197c0 48 -18 72 -54 72z" />
    <glyph glyph-name="c" unicode="c" horiz-adv-x="332" 
d="M269 171c-9 0 -14 6 -14 18c1 7 4 38 4 39c0 34 -16 51 -49 51c-68 0 -139 -107 -139 -198c0 -55 29 -68 66 -68c47 0 86 20 117 59c13 22 24 33 32 33c10 0 15 -5 15 -15c0 -16 -61 -112 -168 -112c-75 0 -121 45 -121 118c0 113 92 218 195 218c27 0 54 -10 81 -30
c5 13 12 20 21 20c11 0 16 -6 16 -17c-41 -111 -44 -116 -56 -116z" />
    <glyph glyph-name="d" unicode="d" horiz-adv-x="382" 
d="M277 29c13 -3 27 -5 42 -5s30 5 47 16l4 -4l-7 -4v8c11 0 17 -4 17 -13c0 -17 -39 -38 -72 -38c-31 5 -53 8 -70 8c-1 0 -11 -4 -21 -8c-8 0 -11 5 -11 14v5c-32 -16 -64 -24 -95 -24c-66 0 -99 35 -99 104c0 119 107 227 236 227c21 0 40 -4 57 -13c30 94 45 143 45 146
c-4 4 -21 25 -21 26c0 9 10 13 29 13h-2l54 1c11 0 17 -5 17 -16c-30 -65 -137 -390 -150 -443zM251 282c-87 0 -184 -112 -184 -209c0 -37 18 -55 55 -55s72 15 105 44l64 197c-2 15 -15 23 -40 23z" />
    <glyph glyph-name="e" unicode="e" horiz-adv-x="308" 
d="M292 256c-29 -23 -99 -87 -210 -194c14 -31 38 -46 71 -46c40 0 77 21 111 63c3 5 7 8 13 8c9 0 14 -5 14 -16c0 -33 -88 -92 -152 -92c-74 0 -127 56 -127 136c0 110 85 199 189 199c53 0 97 -23 97 -47c0 -5 -2 -9 -6 -11zM188 279c-69 0 -116 -79 -116 -178l161 150
c-7 19 -22 28 -45 28z" />
    <glyph glyph-name="f" unicode="f" horiz-adv-x="171" 
d="M55 309c25 0 39 0 58 39c96 205 229 307 398 307c87 0 151 -44 172 -94c0 -4 -32 -37 -40 -37c-7 0 -12 4 -14 13c-9 35 -13 47 -45 64c-23 13 -47 19 -71 19c-194 0 -265 -95 -349 -313l62 1v-5l2 4c3 -4 5 -8 5 -11c0 -15 -7 -22 -21 -22h-61
c-29 -80 -59 -164 -89 -253c24 -5 38 -7 42 -7c12 0 14 1 41 18c5 0 10 -3 13 -10c0 -27 -22 -41 -65 -41c-42 6 -65 9 -68 9c-1 0 -4 0 -25 -8c-9 0 -14 5 -14 15c0 3 52 161 97 276l-34 -1l2 9c-5 -3 -9 -5 -12 -5c-6 0 -9 4 -9 12c0 13 8 20 25 21z" />
    <glyph glyph-name="g" unicode="g" horiz-adv-x="337" 
d="M353 284c-13 -15 -27 -49 -42 -101c-71 -275 -185 -394 -380 -394c-118 0 -190 49 -190 112c0 28 18 50 42 50c9 0 14 -5 14 -15c-9 -17 -13 -30 -13 -39c0 -46 57 -76 147 -76c98 0 180 58 249 177c-23 -13 -48 -20 -75 -20c-64 0 -105 47 -105 115
c0 118 97 225 206 225c48 0 79 -11 95 -34v-3c37 27 38 27 41 27c9 0 14 -5 14 -14c0 -3 -1 -6 -3 -10zM210 283c-76 0 -153 -108 -153 -210c0 -41 16 -62 48 -62c37 0 71 17 102 51c40 100 60 157 60 172c0 33 -19 49 -57 49z" />
    <glyph glyph-name="h" unicode="h" horiz-adv-x="345" 
d="M535 598c-1 0 -53 7 -70 10c-131 0 -242 -111 -312 -312c23 11 45 17 65 17c60 0 101 -35 101 -87c0 -49 -59 -204 -62 -207l23 -3c7 0 19 4 36 12c11 0 16 -5 16 -14c0 -15 -30 -29 -57 -29l-64 6c-1 0 -3 0 -15 -2c-9 0 -13 4 -13 12c0 7 4 14 13 22c8 7 64 178 64 212
c0 30 -15 45 -45 45c-29 0 -56 -13 -81 -38c-47 -131 -70 -203 -70 -214c0 -5 2 -8 15 -25c0 -11 -6 -16 -17 -16c-18 2 -28 3 -35 3c-1 0 -4 0 -25 -8c-9 0 -14 5 -14 15c168 503 259 643 479 643c39 0 82 -15 82 -30c0 -8 -5 -12 -14 -12z" />
    <glyph glyph-name="i" unicode="i" horiz-adv-x="172" 
d="M148 354l-23 9l41 82h61zM68 17l23 -4c7 0 19 4 36 13c11 0 16 -5 16 -14c0 -19 -18 -28 -53 -28c-35 4 -49 5 -56 5c-4 0 -8 -1 -23 -5c-9 0 -13 5 -13 14c0 3 1 6 3 10c59 151 89 239 89 263c-15 15 -15 15 -15 20c0 14 1 14 74 14c9 0 14 -5 14 -14
c-2 -5 -84 -241 -95 -274z" />
    <glyph glyph-name="j" unicode="j" horiz-adv-x="149" 
d="M135 354l-26 9l42 82h60zM93 135c-72 -254 -149 -345 -274 -345c-34 0 -71 14 -71 29c0 11 2 13 21 13c23 -8 40 -12 51 -12c55 0 101 33 137 100c9 17 31 78 65 183c23 73 49 129 76 169c-8 2 -17 3 -26 3c-12 -3 -21 -5 -23 -5c-8 0 -12 4 -12 12c0 15 11 23 34 23
c23 -5 34 -7 39 -7c3 0 10 2 31 7c8 0 12 -4 12 -13c-32 -61 -34 -65 -60 -157z" />
    <glyph glyph-name="k" unicode="k" horiz-adv-x="320" 
d="M702 -208c-222 0 -434 118 -608 340c-21 -65 -31 -100 -31 -104c0 -5 2 -10 15 -29c0 -9 -4 -14 -13 -14c-21 4 -25 4 -68 -3c-8 0 -12 4 -12 13c0 11 12 50 37 119c47 129 108 314 108 326c0 2 -1 3 -20 26c0 9 9 13 28 13h-2l54 1c11 0 17 -5 17 -16
c0 -5 -3 -10 -9 -17c-2 -2 -21 -58 -57 -167c38 27 77 41 116 41c52 0 78 -22 78 -65c0 -61 -74 -103 -195 -103c236 -232 378 -320 604 -320c70 0 127 16 170 48c14 14 24 21 31 21c9 0 14 -4 14 -13c0 -29 -109 -97 -257 -97zM244 282c-39 0 -79 -19 -122 -58l-11 -37h30
c80 0 137 33 137 74c0 14 -11 21 -34 21z" />
    <glyph glyph-name="l" unicode="l" horiz-adv-x="187" 
d="M39 -1c-2 0 -23 -6 -25 -7c-9 0 -14 5 -14 14c167 499 244 651 534 651c83 0 152 -37 152 -75c0 -9 -4 -14 -13 -14c-7 0 -11 3 -14 8c-27 33 -63 49 -108 49c-161 0 -297 -91 -346 -228l-130 -367c29 -5 46 -7 49 -7c7 0 14 4 36 19c5 0 9 -3 12 -10
c0 -22 -24 -42 -70 -42z" />
    <glyph glyph-name="m" unicode="m" horiz-adv-x="493" 
d="M234 300c15 9 30 14 44 14c27 0 47 -11 61 -32c27 21 51 32 72 32c39 0 69 -33 69 -74c0 -13 -1 -23 -4 -31l-35 -102c-18 -53 -27 -82 -27 -89c35 2 42 3 60 7c7 -3 10 -7 10 -12c0 -14 -15 -21 -44 -21c-28 2 -46 3 -56 3c-4 0 -6 0 -24 -4c-9 0 -13 4 -13 13
c0 5 7 25 20 61c38 103 61 168 61 194c0 14 -7 21 -21 21c-25 0 -44 -20 -58 -61c-41 -123 -62 -186 -62 -190c0 -5 1 -7 15 -26c0 -10 0 -10 -69 -12c-12 0 -18 4 -18 13c40 100 80 230 80 255c0 14 -7 21 -21 21c-19 0 -51 -26 -63 -51c-6 -13 -67 -188 -67 -206
c0 -1 2 -4 12 -19c0 -8 -5 -13 -16 -14h-26c-38 0 -42 0 -42 15l98 272c-49 0 -108 -57 -108 -149c0 -17 2 -19 22 -45c0 -9 -6 -14 -17 -14c-26 0 -51 42 -51 89c0 90 82 154 199 154c11 0 17 -4 19 -12z" />
    <glyph glyph-name="n" unicode="n" horiz-adv-x="414" 
d="M384 35c12 0 18 -5 18 -16c0 -20 -15 -30 -45 -30l-54 4c-4 0 -12 -1 -24 -3c-9 0 -13 4 -13 13c28 71 77 220 77 238c0 26 -12 39 -37 39c-38 0 -70 -18 -95 -53c-14 -31 -67 -189 -67 -203c0 -1 2 -4 12 -19c0 -9 -5 -14 -15 -14h-27c-38 0 -42 0 -42 12
c0 2 33 94 98 275c-48 0 -108 -57 -108 -150c0 -13 3 -22 9 -27c9 -8 13 -14 13 -18c0 -9 -6 -13 -17 -13c-27 0 -51 43 -51 89c0 90 82 154 199 154c13 0 20 -6 20 -17c-1 -1 -1 -3 -2 -6c27 16 53 24 80 24c50 0 86 -31 86 -76c0 -11 -1 -21 -4 -30
c-15 -41 -62 -170 -62 -191c30 2 39 3 50 16z" />
    <glyph glyph-name="o" unicode="o" horiz-adv-x="338" 
d="M130 -18c-73 0 -118 54 -118 137c0 108 77 194 174 194c25 0 38 -6 38 -18c0 -9 -5 -13 -16 -13l-14 1c-62 0 -128 -104 -128 -186c0 -55 19 -82 56 -82c85 0 143 112 143 210c0 56 -21 84 -61 84c-11 0 -17 5 -17 14c0 10 9 15 28 15c59 0 107 -63 107 -141
c0 -116 -87 -215 -192 -215z" />
    <glyph glyph-name="p" unicode="p" horiz-adv-x="345" 
d="M151 293c23 14 48 21 73 21c66 0 109 -51 109 -129c0 -119 -86 -203 -178 -203c-41 0 -71 11 -92 33c-33 -91 -117 -257 -258 -257c-17 0 -26 5 -26 16c0 10 7 15 21 15c71 0 129 55 175 166c46 120 106 300 106 312c0 2 -1 3 -20 26c0 9 5 14 15 14c73 -4 73 -4 75 -14z
M218 278c-42 0 -70 -15 -84 -46c-6 -15 -21 -66 -48 -151c5 -43 26 -64 65 -64c60 0 123 88 123 186c0 45 -22 75 -56 75z" />
    <glyph glyph-name="q" unicode="q" horiz-adv-x="349" 
d="M369 -213c-35 0 -82 11 -141 32c-17 6 -31 9 -42 9c-1 0 -14 -1 -37 -4c-11 0 -17 5 -17 16c13 23 17 31 34 92l19 71c-24 -16 -51 -24 -80 -24c-63 0 -105 45 -105 113c0 118 91 222 204 222c46 0 77 -11 93 -34v-2c36 25 38 26 42 26c9 0 13 -5 13 -14
c0 -3 -1 -6 -3 -10c-14 -17 -17 -26 -143 -418c33 0 59 -4 105 -17c41 -11 69 -17 84 -17c14 0 37 14 38 29c1 11 5 17 14 17c10 0 15 -6 15 -19c0 -37 -46 -68 -93 -68zM208 279c-79 0 -151 -105 -151 -207c0 -41 16 -61 47 -61c37 0 70 17 101 50c39 101 59 157 59 170
c0 32 -19 48 -56 48z" />
    <glyph glyph-name="r" unicode="r" horiz-adv-x="281" 
d="M61 22l54 -7c12 0 29 6 50 19c6 -6 9 -11 9 -14c0 -18 -36 -34 -75 -34l-72 6c-1 0 -9 -1 -23 -4c-9 0 -13 4 -13 13l99 281c-37 -5 -39 -6 -53 -12c-8 0 -12 5 -12 14c0 17 15 26 46 26c35 -4 49 -5 56 -5c13 4 14 4 16 4c9 0 13 -5 13 -14c-1 -3 -2 -7 -4 -12
c23 15 48 23 75 23c41 0 73 -24 73 -57c0 -36 -48 -73 -96 -73c-10 0 -15 5 -15 16c40 26 51 34 51 55c0 13 -9 20 -28 20c-35 0 -63 -19 -85 -57z" />
    <glyph glyph-name="s" unicode="s" horiz-adv-x="268" 
d="M222 225c-3 -6 -7 -9 -12 -9c-13 0 -15 2 -15 24c0 41 -16 60 -52 60c-31 0 -46 -13 -46 -39c0 -17 12 -38 35 -63c90 -97 106 -121 106 -183c0 -129 -130 -221 -305 -221c-87 0 -152 29 -193 87c-12 17 -18 31 -18 44c0 29 10 43 29 43c10 0 15 -5 15 -15l-4 -20
c0 -60 74 -101 184 -101c131 0 229 74 229 175c0 46 -16 68 -97 160c-25 28 -37 52 -37 72c0 55 43 93 106 93c31 0 55 -8 72 -24c8 15 15 23 20 23c11 0 17 -7 17 -22z" />
    <glyph glyph-name="t" unicode="t" horiz-adv-x="179" 
d="M377 508c-1 0 -21 4 -33 8c-77 0 -142 -71 -193 -212h11c23 0 23 0 29 -6c0 -19 -12 -20 -50 -24c-51 -147 -77 -227 -77 -240c0 -1 2 -2 7 -2c10 0 13 2 92 45c9 0 13 -4 13 -11c0 -20 -97 -77 -138 -77c-25 0 -38 13 -38 38c0 13 0 13 78 248c-38 0 -41 0 -41 13
c0 11 7 17 22 17c20 0 42 19 67 58c41 65 67 104 77 115c39 44 85 66 139 66c24 0 48 -12 48 -24c0 -8 -4 -12 -13 -12z" />
    <glyph glyph-name="u" unicode="u" horiz-adv-x="361" 
d="M334 143c-37 -105 -100 -158 -187 -158c-72 0 -122 53 -122 133c0 50 35 117 76 153c-45 -9 -68 -23 -68 -42c0 -9 -5 -13 -14 -13s-13 5 -13 14c0 67 68 78 153 75h-2c3 0 12 1 18 2c9 0 14 -4 14 -13c0 -5 -2 -9 -7 -12c-65 -43 -98 -106 -98 -189c0 -49 21 -74 63 -74
c79 0 149 79 149 191c0 39 -2 42 -27 84c6 6 19 10 53 10c18 0 27 -28 27 -85c0 -22 -5 -47 -15 -76z" />
    <glyph glyph-name="v" unicode="v" horiz-adv-x="316" 
d="M50 303l44 1c23 0 34 -4 34 -12c0 -4 -2 -8 -7 -13c-13 -9 -19 -25 -19 -47c9 -49 25 -138 25 -141c0 -18 -2 -33 -5 -46c86 45 160 183 160 298c0 73 -21 120 -63 142c-7 4 -11 8 -11 13c0 8 5 12 15 12c53 0 108 -93 108 -189c0 -109 -54 -202 -161 -281
c-45 -33 -77 -50 -96 -50c-11 0 -16 6 -16 19h2c9 24 14 46 14 65c0 17 -6 43 -17 76c-11 34 -17 60 -17 77c0 19 5 35 14 48c-12 1 -18 6 -18 17c0 9 5 13 14 13v-2z" />
    <glyph glyph-name="w" unicode="w" horiz-adv-x="432" 
d="M740 433l-3 3c-28 14 -61 21 -98 21c-50 0 -134 -22 -253 -67c26 -41 39 -86 39 -136c0 -133 -90 -265 -189 -265c-20 0 -38 6 -54 18c-24 -15 -46 -22 -66 -22c-66 0 -106 49 -106 128c0 59 26 113 78 161c-5 1 -12 2 -19 2c-5 0 -9 -2 -30 -13c-9 0 -13 4 -13 13
c0 16 25 31 48 31c13 -1 51 -6 52 -6l24 4l7 -7c0 -6 -1 -11 -4 -15c-63 -90 -84 -122 -84 -187c0 -51 16 -76 47 -76c15 0 29 3 42 10c-17 23 -25 51 -25 83c0 88 65 192 125 192c33 0 50 -24 50 -71c0 -76 -38 -156 -98 -205c7 -7 17 -11 28 -11c72 0 144 145 144 260
c0 39 -9 73 -27 100c-73 -27 -122 -41 -148 -41c-71 0 -127 35 -127 79c0 38 53 70 113 70c72 0 128 -22 169 -67c121 47 206 71 255 71c81 0 137 -20 137 -43c0 -7 -5 -11 -14 -14zM214 447c-59 0 -88 -13 -88 -40c0 -21 33 -39 70 -39c23 0 67 13 134 39
c-29 27 -68 40 -116 40zM260 269c-29 0 -71 -113 -71 -172c0 -16 2 -30 6 -41c45 45 81 147 81 177c0 24 -5 36 -16 36z" />
    <glyph glyph-name="x" unicode="x" horiz-adv-x="353" 
d="M368 294c-62 0 -95 -31 -169 -125l44 -111c7 -9 11 -14 12 -14c41 72 45 79 55 79c9 0 13 -5 13 -15l-5 -6l-29 -69c-16 -29 -33 -43 -51 -43c-25 0 -53 42 -83 125c-161 -203 -324 -305 -489 -305c-132 0 -246 53 -246 120c0 11 5 17 15 17c5 0 10 -4 14 -11
c35 -62 103 -93 203 -93c154 0 316 105 487 315c-10 29 -38 103 -46 103c-8 -4 -35 -16 -40 -18c-10 0 -15 5 -15 14c4 7 57 56 81 56c18 0 25 -8 42 -48l22 -54c64 74 124 111 179 111c13 0 19 -5 19 -15c0 -9 -4 -13 -13 -13z" />
    <glyph glyph-name="y" unicode="y" horiz-adv-x="342" 
d="M349 282c-110 -367 -182 -489 -300 -489c-10 0 -15 4 -15 13c0 12 1 13 46 29c38 27 77 87 117 181c-31 -22 -60 -33 -88 -33c-68 0 -103 51 -103 109c0 61 39 141 88 180c-16 0 -25 0 -49 -10c-9 0 -13 4 -13 12c0 16 25 28 54 28l49 -1h-2c6 0 21 3 30 4
c11 0 17 -5 17 -15c-84 -80 -112 -123 -112 -230c0 -28 17 -42 51 -42c31 0 94 42 108 73c9 19 52 159 52 173c0 1 0 1 -21 24c0 10 25 15 81 15c2 1 4 2 5 2c4 0 5 -5 5 -23z" />
    <glyph glyph-name="z" unicode="z" horiz-adv-x="272" 
d="M568 -187c-105 0 -182 30 -396 126c-75 33 -125 50 -150 50c-15 0 -22 6 -22 17c0 7 5 12 16 15c49 17 77 57 154 189c18 31 34 54 49 69c-87 -16 -169 -93 -169 -141c0 -8 4 -17 17 -37c0 -8 -4 -12 -12 -12c-26 0 -49 31 -49 64c0 88 111 160 271 160
c10 0 18 -4 23 -13c-28 -30 -41 -45 -69 -100c-50 -96 -99 -159 -148 -188l324 -111c100 -31 172 -46 216 -46c43 0 77 10 102 31c5 4 9 6 12 6c8 0 12 -4 12 -13c0 -37 -81 -66 -181 -66z" />
    <glyph glyph-name="braceleft" unicode="{" horiz-adv-x="311" 
d="M140 -65c10 0 15 -6 15 -18l-7 -7c-11 -1 -92 -4 -118 -5c-9 0 -13 4 -13 13c25 68 26 72 78 234l103 317c21 66 22 76 22 90c0 9 4 13 12 13c101 -2 124 -2 124 -21c0 -9 -5 -13 -16 -13l-64 2c0 -19 -7 -39 -131 -419l-59 -188z" />
    <glyph glyph-name="bar" unicode="|" horiz-adv-x="233" 
d="M128 -97c-9 0 -14 5 -14 14v671c0 9 5 14 14 14s14 -5 14 -14v-671c0 -9 -5 -14 -14 -14z" />
    <glyph glyph-name="braceright" unicode="}" horiz-adv-x="354" 
d="M348 552c-16 -33 -19 -43 -77 -227l-103 -316c-18 -55 -22 -68 -22 -91c0 -9 -5 -13 -15 -13c-99 2 -121 2 -121 21c0 9 5 13 16 13l64 -2c0 13 43 153 130 418l62 190l-6 -2l-52 -1h2c-9 0 -15 7 -18 20c17 7 40 7 104 7c8 0 15 1 21 3c13 0 15 -3 15 -20z" />
    <glyph glyph-name="asciitilde" unicode="~" horiz-adv-x="418" 
d="M334 269v2c13 0 19 -5 19 -15c0 -20 -47 -51 -69 -51c-12 0 -89 7 -165 13c-9 0 -21 -4 -35 -11c-13 0 -20 4 -20 13c0 15 54 48 70 48c77 -8 156 -15 167 -15c1 0 25 12 33 16z" />
    <glyph glyph-name="exclamdown" unicode="&#xa1;" horiz-adv-x="193" 
d="M147 358c-17 0 -26 11 -26 34c0 27 19 53 39 53c19 0 28 -10 28 -29c0 -29 -20 -58 -41 -58zM118 325c13 8 22 11 23 11c3 0 6 -2 9 -6c-64 -209 -69 -225 -81 -297c-5 -28 -18 -42 -40 -42c-19 0 -29 12 -29 35c0 9 1 17 4 22c28 59 62 145 103 259c14 37 17 41 28 41
s16 -8 16 -23h-33z" />
    <glyph glyph-name="cent" unicode="&#xa2;" horiz-adv-x="366" 
d="M299 357c1 14 8 21 20 21c11 0 16 -6 16 -17c-35 -101 -40 -115 -56 -115c-9 0 -14 6 -14 18c1 7 4 38 4 39c0 22 -6 37 -19 45l-84 -259c39 5 71 24 98 58c16 26 21 32 32 32c10 0 15 -5 15 -14c0 -33 -81 -107 -156 -113l-17 -52c-2 -6 -6 -9 -13 -9
c-10 0 -15 4 -15 13c0 3 5 19 14 50h-5l-17 -54c-2 -6 -6 -9 -13 -9c-11 0 -16 4 -16 13c0 3 6 22 18 57c-46 17 -69 53 -69 110c0 106 79 205 174 217l25 77c3 5 8 8 13 8c10 0 15 -4 15 -13c0 -3 -7 -27 -22 -71h7l24 74c1 7 6 10 13 10c10 0 15 -4 15 -13
c0 -3 -9 -29 -26 -80c13 -5 26 -13 39 -23zM216 354l-87 -265h6l87 265h-6zM81 156c0 -27 7 -46 22 -57l80 245c-55 -26 -102 -113 -102 -188z" />
    <glyph glyph-name="sterling" unicode="&#xa3;" horiz-adv-x="837" 
d="M227 196l-4 -8c-5 3 -8 5 -8 8c0 1 6 7 9 10c50 0 51 0 88 105c88 237 190 337 343 337c86 0 152 -62 152 -144c0 -102 -92 -201 -238 -262c-44 -19 -79 -28 -106 -28c-65 0 -97 9 -97 26c0 8 5 12 14 12c31 -5 48 -7 55 -7c155 0 320 154 320 275c0 58 -39 95 -100 95
c-135 0 -206 -88 -317 -410l65 1l5 -10c0 -16 -7 -24 -20 -24h-61l-25 -71c-7 -21 -20 -41 -37 -61c76 -24 128 -36 156 -36c19 0 37 8 59 30l1 3c10 0 16 -4 18 -11c0 -33 -57 -63 -124 -63c-39 0 -94 11 -163 34c-37 -23 -75 -34 -114 -34c-55 0 -83 14 -83 43
c0 34 51 57 123 57c25 0 51 -3 80 -9c11 16 27 55 47 118c-22 -2 -33 -3 -41 -3c-13 0 -19 6 -19 17c0 13 8 20 24 21l2 -15zM98 22c-35 0 -53 -5 -53 -15c0 -5 15 -9 58 -14c25 0 47 5 67 15c-32 9 -56 14 -72 14z" />
    <glyph glyph-name="currency" unicode="&#xa4;" horiz-adv-x="632" 
d="M459 276c-46 0 -69 21 -69 63c0 22 5 33 16 33c10 0 15 -5 15 -15c-2 -5 -3 -12 -3 -16c0 -18 12 -27 36 -27c28 0 59 36 59 76c0 49 -33 80 -87 80c-113 0 -203 -84 -240 -222c92 2 133 3 164 3c11 0 16 -5 16 -14c0 -6 -6 -16 -18 -29v6c-20 -5 -40 -5 -119 -5h-53v-9
c99 3 118 3 151 3c11 0 16 -5 16 -14c0 -6 -6 -16 -18 -29v8c-16 -3 -67 -5 -152 -7c4 -94 63 -151 158 -151c71 0 124 33 159 98c10 19 15 35 15 49c0 23 -10 42 -30 62h11v3l4 -9h-10c0 14 16 31 28 31c16 0 34 -38 34 -73c0 -97 -104 -191 -217 -191
c-132 0 -201 60 -207 181c-90 0 -90 0 -90 13c0 18 8 27 24 27l66 -2l1 9h-50c-12 0 -18 5 -18 14c0 18 8 27 24 27l51 -2c30 143 150 255 271 255c92 0 156 -47 156 -112c0 -66 -40 -114 -94 -114z" />
    <glyph glyph-name="yen" unicode="&#xa5;" horiz-adv-x="556" 
d="M601 439c-74 -45 -87 -60 -241 -390c50 0 53 0 53 -15c0 -11 -23 -16 -69 -17l-3 -6l56 1c11 0 17 -6 17 -17c0 -10 -5 -16 -14 -19h-78c-70 -121 -145 -182 -224 -182c-53 0 -99 32 -99 49c0 13 26 59 36 59c4 0 9 -3 16 -10c-4 -11 -6 -19 -6 -26c0 -28 14 -42 41 -42
c49 0 103 50 164 150h-20c-15 0 -23 7 -23 22c0 11 7 16 20 16c10 -1 43 -2 45 -2v6l-45 -3c-13 0 -20 6 -20 17c0 20 0 20 69 20c0 56 0 69 -27 144c-19 53 -28 93 -28 121c0 47 12 85 35 116c-9 0 -23 1 -45 3c-15 0 -17 -2 -47 -22c-9 0 -13 5 -13 16c6 25 46 45 88 45
c11 0 41 -4 46 -4c4 0 15 1 36 5c10 0 15 -6 15 -19c-40 -40 -51 -62 -51 -122c0 -25 8 -68 24 -130c9 -33 14 -62 17 -87c131 262 197 347 268 347c9 0 14 -5 14 -14c-2 -4 -4 -7 -7 -10z" />
    <glyph glyph-name="brokenbar" unicode="&#xa6;" horiz-adv-x="135" 
d="M74 256c-9 0 -14 5 -14 14v318c0 9 5 14 14 14s14 -5 14 -14v-318c0 -9 -5 -14 -14 -14zM74 -97c-9 0 -14 5 -14 14v319c0 9 5 14 14 14s14 -5 14 -14v-319c0 -9 -5 -14 -14 -14z" />
    <glyph glyph-name="dieresis" unicode="&#xa8;" horiz-adv-x="199" 
d="M133 489c-19 0 -29 10 -29 29c0 31 19 58 41 58c18 0 27 -11 27 -34c0 -28 -18 -53 -39 -53zM59 489c-19 0 -29 10 -29 29c0 31 19 58 41 58c17 0 26 -11 26 -34c0 -27 -18 -53 -38 -53z" />
    <glyph glyph-name="copyright" unicode="&#xa9;" horiz-adv-x="533" 
d="M269 -26c-135 0 -235 100 -235 235s101 236 235 236c135 0 236 -101 236 -236c0 -134 -101 -235 -236 -235zM269 412c-115 0 -202 -87 -202 -203c0 -115 87 -202 202 -202s203 88 203 202c0 115 -88 203 -203 203zM364 354l2 1c0 -16 -2 -18 -13 -20v16c0 15 8 26 18 26
c9 0 14 -5 14 -16c-14 -79 -15 -79 -25 -79s-17 14 -20 42c-6 16 -26 24 -60 24c-62 0 -103 -57 -103 -144c0 -81 34 -122 103 -122c45 0 80 20 105 59c11 30 22 45 31 45s13 -5 13 -15c0 -68 -80 -134 -159 -134c-94 0 -165 74 -165 173c0 98 73 172 165 172
c35 0 81 -13 94 -28z" />
    <glyph glyph-name="ordfeminine" unicode="&#xaa;" horiz-adv-x="270" 
d="M193 310c5 0 20 8 45 23l8 -15c-1 -17 -51 -42 -73 -42c-13 0 -21 5 -24 16c-19 -13 -40 -20 -62 -20c-35 0 -52 14 -52 41c0 51 48 82 144 95c7 17 10 29 10 34c0 10 -6 15 -19 15c-36 0 -60 -18 -60 -53c0 -11 -5 -17 -15 -17c-16 0 -24 10 -24 31c0 31 47 64 96 64
c41 0 61 -16 61 -48c0 -14 -6 -35 -17 -63c-11 -27 -17 -48 -18 -61zM224 242h-182c-9 0 -14 5 -14 14s5 14 14 14h182c9 0 14 -5 14 -14s-5 -14 -14 -14zM92 322c0 -7 4 -11 11 -11c18 0 36 9 53 26l13 40c-53 -13 -77 -30 -77 -55z" />
    <glyph glyph-name="guillemotleft" unicode="&#xab;" horiz-adv-x="237" 
d="M107 148l17 -88l-24 -12l-48 104l88 98l22 -11zM170 148l17 -88l-24 -12l-48 104l88 98l22 -11z" />
    <glyph glyph-name="logicalnot" unicode="&#xac;" horiz-adv-x="353" 
d="M253 241c-59 0 -85 -1 -171 -3c-11 0 -16 5 -16 14c0 18 7 28 20 28h191c11 0 16 -9 16 -25c0 -35 -8 -52 -24 -52c-15 0 -16 1 -16 38z" />
    <glyph glyph-name="registered" unicode="&#xae;" horiz-adv-x="319" 
d="M168 172c-75 0 -134 59 -134 134c0 74 60 134 134 134c73 0 134 -61 134 -134c0 -75 -59 -134 -134 -134zM168 407c-57 0 -101 -44 -101 -101c0 -58 43 -101 101 -101c57 0 101 44 101 101c0 55 -46 101 -101 101zM237 228c-31 0 -46 14 -93 67l-14 -42c13 0 14 0 32 11
v-19c0 -12 -14 -17 -25 -17c-6 0 -23 4 -26 4c-5 0 -14 -2 -27 -6v15c0 5 3 9 9 12c4 8 5 10 43 118c-10 -3 -24 -12 -41 -25c0 35 23 54 68 54c46 0 69 -18 69 -54c0 -28 -15 -45 -46 -52c43 -41 43 -41 77 -41v-11c0 -9 -9 -14 -26 -14zM172 376l-19 -55c5 -2 9 -3 13 -3
c22 0 33 11 33 33c0 15 -9 24 -27 25z" />
    <glyph glyph-name="degree" unicode="&#xb0;" horiz-adv-x="175" 
d="M84 351c-38 0 -67 30 -67 68c0 37 30 67 67 67s68 -30 68 -67c0 -38 -30 -68 -68 -68zM84 448c-19 0 -29 -10 -29 -29c0 -20 10 -30 29 -30s29 10 29 30c0 19 -10 29 -29 29z" />
    <glyph glyph-name="plusminus" unicode="&#xb1;" horiz-adv-x="298" 
d="M176 281v-1l82 1c9 0 14 -4 14 -13c0 -17 -10 -25 -29 -25h-67c2 -26 3 -53 3 -80c0 -10 -5 -15 -14 -15c-17 0 -26 7 -26 20v-3l1 78l-79 -3c-11 0 -16 5 -16 14c0 26 0 26 95 26l-3 79c0 9 7 14 22 14c17 0 17 0 17 -92zM258 91c-15 2 -44 4 -45 4s-135 -3 -143 -4
c-11 0 -16 5 -16 14c0 18 7 28 20 28h193c9 0 14 -5 14 -14c0 -19 -8 -28 -23 -28z" />
    <glyph glyph-name="twosuperior" unicode="&#xb2;" horiz-adv-x="283" 
d="M160 210l32 -7c16 0 28 7 36 20c4 4 8 6 12 6c8 0 12 -4 12 -13c0 -26 -35 -50 -72 -50c-15 0 -37 5 -64 15c-21 -11 -39 -17 -56 -17c-24 0 -36 8 -36 25s24 34 47 34c13 0 31 -2 52 -7c45 37 102 117 102 184c0 33 -14 50 -42 50c-48 0 -94 -58 -94 -115
c0 -32 5 -53 14 -62c13 -9 20 -18 20 -25c-5 -5 -9 -7 -12 -7c-36 0 -65 48 -65 99c0 78 62 138 141 138c50 0 84 -39 84 -85c0 -66 -37 -127 -111 -183z" />
    <glyph glyph-name="threesuperior" unicode="&#xb3;" horiz-adv-x="316" 
d="M148 471c19 7 35 11 50 11c52 0 78 -22 78 -67c0 -25 -15 -47 -46 -65c25 -13 38 -36 38 -69c0 -62 -58 -111 -134 -111c-66 0 -113 41 -113 100c0 43 22 71 66 85c8 -3 9 -4 9 -22c-25 -12 -37 -34 -37 -66c0 -41 29 -70 69 -70c55 0 96 41 96 95c0 27 -20 41 -61 41
c-13 0 -20 5 -20 14c1 4 10 9 25 16c51 22 65 40 65 71c0 14 -11 21 -32 21c-29 0 -56 -20 -81 -59c-3 -7 -8 -11 -17 -11c-7 0 -10 4 -10 12c0 2 20 79 41 79c5 0 9 -2 14 -5z" />
    <glyph glyph-name="acute" unicode="&#xb4;" horiz-adv-x="146" 
d="M49 487l-23 11l41 79h61z" />
    <glyph glyph-name="cedilla" unicode="&#xb8;" horiz-adv-x="155" 
d="M100 -45c7 -9 11 -20 11 -34c0 -27 -27 -45 -66 -45c-14 0 -21 4 -21 13c0 7 15 14 46 19c6 2 6 3 6 24c-15 -13 -25 -19 -30 -19c-9 0 -13 6 -13 18l9 -3c0 -2 -5 -3 -14 -3l9 10c37 32 52 52 55 72l39 -6c-11 -19 -22 -35 -31 -46z" />
    <glyph glyph-name="onesuperior" unicode="&#xb9;" horiz-adv-x="178" 
d="M131 446l-33 -33c-23 -22 -34 -41 -34 -58l4 -18c0 -8 -4 -12 -12 -12c-10 0 -20 20 -20 39c0 48 56 97 120 118c8 0 12 -4 12 -13l-93 -265c7 -1 12 -2 14 -2c9 0 19 4 30 13l9 9v-6l2 5c5 -7 8 -13 8 -17c0 -15 -24 -31 -46 -31c-4 0 -15 1 -36 5c-4 0 -9 -1 -18 -3
c-10 0 -15 6 -15 18h2c37 96 92 252 92 260c9 0 13 -3 14 -9z" />
    <glyph glyph-name="ordmasculine" unicode="&#xba;" horiz-adv-x="270" 
d="M119 260c-50 0 -75 29 -75 87c0 66 49 120 108 120c18 0 27 -6 27 -17c-4 -6 -11 -9 -22 -9c-33 0 -73 -61 -73 -107c0 -31 10 -46 30 -46c45 0 82 63 82 122c0 31 -9 47 -26 48c-13 0 -21 0 -21 11c0 9 7 13 21 13c38 0 68 -39 68 -89c0 -72 -55 -133 -119 -133z
M224 242h-182c-9 0 -14 5 -14 14s5 14 14 14h182c9 0 14 -5 14 -14s-5 -14 -14 -14z" />
    <glyph glyph-name="guillemotright" unicode="&#xbb;" horiz-adv-x="237" 
d="M55 51l-23 11l55 90l-17 89l26 9l46 -102zM118 51l-23 11l55 90l-17 89l26 9l46 -102z" />
    <glyph glyph-name="onequarter" unicode="&#xbc;" horiz-adv-x="435" 
d="M353 127c11 0 31 5 60 14l1 -3h4c3 0 5 -3 5 -9c0 -21 -47 -29 -80 -32c-10 -27 -19 -55 -28 -83c19 0 25 1 37 6c8 0 12 -4 12 -12c0 -14 -11 -21 -33 -21c-63 4 -64 4 -64 21l20 49l13 42c-69 17 -80 20 -85 20c-9 0 -24 -3 -46 -10c-9 0 -14 4 -14 12c0 5 2 8 7 11
c37 25 91 97 110 153c3 7 8 11 15 11h19c8 0 12 -4 12 -12c0 -25 -32 -70 -95 -135c23 0 45 -4 90 -15c22 68 33 103 33 106l-6 5c-4 3 -6 8 -6 13c5 5 9 7 13 7l1 -10l-5 5c0 1 1 3 4 4h37c8 0 12 -5 12 -14c-5 -12 -19 -53 -43 -123zM25 194l83 227
c-29 -27 -44 -50 -44 -68l4 -18c0 -8 -4 -12 -12 -12c-13 0 -20 13 -20 39c0 41 45 86 116 117c10 0 16 -1 16 -12l-94 -266c7 -1 12 -2 15 -2c9 0 19 4 30 13l9 9v-13l-3 3l-3 -3v8c11 0 16 -4 16 -12c0 -18 -32 -32 -46 -32c-4 0 -15 1 -36 5c-11 0 -12 0 -18 -3
c-10 0 -15 6 -15 19zM75 -111c-2 -6 -7 -9 -14 -9c-9 0 -14 5 -14 14c0 2 72 225 216 668c2 6 7 9 14 9c9 0 14 -5 14 -14c0 -2 -72 -225 -216 -668z" />
    <glyph glyph-name="onehalf" unicode="&#xbd;" horiz-adv-x="434" 
d="M302 35l32 -7c16 0 28 6 35 19c3 5 7 8 12 8c9 0 13 -5 13 -14c0 -28 -33 -50 -73 -50c-15 0 -37 5 -64 15c-21 -11 -39 -17 -55 -17c-25 0 -37 9 -37 26c0 18 29 33 48 33c13 0 30 -2 52 -6c55 41 101 124 101 183c0 33 -14 50 -41 50c-49 0 -95 -63 -95 -115
c0 -32 5 -53 14 -62c13 -9 20 -15 20 -20c0 -8 -4 -12 -11 -12c-36 0 -66 45 -66 99c0 78 61 138 142 138c54 0 83 -40 83 -85c0 -64 -37 -125 -110 -183zM25 196l83 227c-29 -27 -44 -50 -44 -68l4 -18c0 -8 -4 -12 -12 -12c-13 0 -20 13 -20 39c0 41 45 86 116 117
c10 0 16 -1 16 -12l-94 -266c7 -1 12 -2 15 -2c9 0 19 4 30 13l9 9v-13l-3 3l-3 -3v8c11 0 16 -4 16 -12c0 -18 -32 -32 -46 -32c-30 5 -30 5 -47 5l-7 -3c-10 0 -15 6 -15 19zM74 -111c-2 -6 -7 -9 -15 -9c-9 0 -13 5 -13 14c0 2 72 225 215 668c2 6 7 9 14 9
c9 0 14 -5 14 -14c0 -2 -72 -225 -215 -668z" />
    <glyph glyph-name="threequarters" unicode="&#xbe;" horiz-adv-x="532" 
d="M462 128c9 0 28 4 58 13l3 -3h4c3 0 5 -3 5 -9c0 -12 -42 -29 -79 -32l-29 -83c22 0 24 0 37 6c8 0 12 -4 12 -12c0 -14 -11 -21 -33 -21c-24 3 -37 5 -42 5c-6 -2 -8 -2 -9 -2c-9 0 -13 6 -13 18l13 29l20 63c-9 3 -84 19 -85 19c-9 0 -25 -3 -48 -10c-8 3 -12 7 -12 12
c87 95 98 110 117 164c3 8 8 12 16 12h18c9 0 13 -4 13 -13c0 -25 -31 -70 -94 -134c21 0 43 -4 88 -15c22 68 33 103 33 105c0 1 -2 3 -16 14c7 7 13 11 17 11c33 0 49 -5 49 -14zM185 -111c-2 -6 -7 -9 -14 -9c-9 0 -14 5 -14 14c0 2 72 225 216 668c2 6 7 9 14 9
c9 0 14 -5 14 -14c0 -2 -72 -225 -216 -668zM131 467c19 7 35 10 50 10c52 0 78 -22 78 -67c0 -24 -15 -46 -46 -66c25 -12 38 -35 38 -68c0 -62 -58 -111 -134 -111c-66 0 -113 41 -113 100c0 43 22 71 66 85c8 -2 12 -6 12 -13c0 -3 -1 -6 -3 -10c-24 -11 -36 -33 -36 -66
c0 -41 28 -69 69 -69c52 0 95 43 95 95c0 27 -20 41 -61 41c-9 0 -16 3 -19 10c0 8 9 14 55 34c23 15 34 34 34 56c0 15 -11 22 -32 22c-29 0 -56 -21 -81 -62c-3 -5 -9 -8 -17 -8c-7 0 -10 4 -10 12c0 4 1 6 29 74c5 3 9 4 14 4c4 0 8 -1 12 -3z" />
    <glyph glyph-name="questiondown" unicode="&#xbf;" horiz-adv-x="276" 
d="M221 358c-18 0 -27 11 -27 34c0 27 19 53 39 53c19 0 29 -10 29 -29c0 -29 -20 -58 -41 -58zM96 142c-29 -23 -43 -44 -43 -61c0 -33 32 -57 68 -57c26 0 68 14 68 38c-13 4 -24 17 -24 33c0 37 11 56 34 56c21 0 31 -18 31 -55c0 -60 -46 -104 -110 -104
c-100 0 -120 55 -120 92c0 42 28 73 113 126c46 29 69 47 69 55l-8 8c-5 5 -8 12 -8 19c0 31 19 58 41 58c17 0 26 -13 26 -38c0 -60 -30 -84 -137 -170z" />
    <glyph glyph-name="Agrave" unicode="&#xc0;" horiz-adv-x="588" 
d="M611 478c12 0 18 -6 18 -19l-153 -438l56 -9c32 0 40 5 42 27c1 6 4 9 11 9c10 0 15 -6 15 -17c0 -32 -22 -48 -66 -48l-91 9c-29 0 -31 0 -31 15l72 201h-80c-47 -77 -88 -133 -123 -166l195 -114c72 -42 146 -63 221 -63c37 0 71 7 103 21c5 2 9 3 12 3
c9 0 14 -5 14 -14c0 -23 -27 -28 -166 -45c-121 0 -216 42 -414 183c-35 -24 -72 -36 -111 -36c-61 0 -115 30 -115 86c0 37 24 55 72 55c36 0 86 -18 149 -53c19 22 51 68 95 139c71 115 146 198 224 249c-31 7 -64 10 -97 10c-165 0 -330 -119 -330 -238
c0 -45 24 -81 55 -81c11 0 17 -5 17 -15s-6 -15 -17 -15c-53 0 -90 49 -90 116c0 145 152 266 331 266c19 0 48 -4 87 -12c39 -7 68 -11 87 -11c3 1 8 3 15 8c0 -10 -2 -15 -6 -15zM422 238h72l66 181c-47 -39 -87 -94 -138 -181zM102 87c-19 0 -37 -12 -37 -27
c0 -28 31 -49 69 -49c27 0 53 9 77 27c-49 33 -85 49 -109 49zM591 487l-79 90h61l41 -79z" />
    <glyph glyph-name="Aacute" unicode="&#xc1;" horiz-adv-x="588" 
d="M611 478c12 0 18 -6 18 -19l-153 -438l56 -9c32 0 40 5 42 27c1 6 4 9 11 9c10 0 15 -6 15 -17c0 -32 -22 -48 -66 -48l-91 9c-29 0 -31 0 -31 15l72 201h-80c-47 -77 -88 -133 -123 -166l195 -114c72 -42 146 -63 221 -63c37 0 71 7 103 21c5 2 9 3 12 3
c9 0 14 -5 14 -14c0 -23 -27 -28 -166 -45c-121 0 -216 42 -414 183c-35 -24 -72 -36 -111 -36c-61 0 -115 30 -115 86c0 37 24 55 72 55c36 0 86 -18 149 -53c19 22 51 68 95 139c71 115 146 198 224 249c-31 7 -64 10 -97 10c-165 0 -330 -119 -330 -238
c0 -45 24 -81 55 -81c11 0 17 -5 17 -15s-6 -15 -17 -15c-53 0 -90 49 -90 116c0 145 152 266 331 266c19 0 48 -4 87 -12c39 -7 68 -11 87 -11c3 1 8 3 15 8c0 -10 -2 -15 -6 -15zM422 238h72l66 181c-47 -39 -87 -94 -138 -181zM102 87c-19 0 -37 -12 -37 -27
c0 -28 31 -49 69 -49c27 0 53 9 77 27c-49 33 -85 49 -109 49zM628 487l-23 11l41 79h61z" />
    <glyph glyph-name="Acircumflex" unicode="&#xc2;" horiz-adv-x="588" 
d="M611 478c12 0 18 -6 18 -19l-153 -438l56 -9c32 0 40 5 42 27c1 6 4 9 11 9c10 0 15 -6 15 -17c0 -32 -22 -48 -66 -48l-91 9c-29 0 -31 0 -31 15l72 201h-80c-47 -77 -88 -133 -123 -166l195 -114c72 -42 146 -63 221 -63c37 0 71 7 103 21c5 2 9 3 12 3
c9 0 14 -5 14 -14c0 -23 -27 -28 -166 -45c-121 0 -216 42 -414 183c-35 -24 -72 -36 -111 -36c-61 0 -115 30 -115 86c0 37 24 55 72 55c36 0 86 -18 149 -53c19 22 51 68 95 139c71 115 146 198 224 249c-31 7 -64 10 -97 10c-165 0 -330 -119 -330 -238
c0 -45 24 -81 55 -81c11 0 17 -5 17 -15s-6 -15 -17 -15c-53 0 -90 49 -90 116c0 145 152 266 331 266c19 0 48 -4 87 -12c39 -7 68 -11 87 -11c3 1 8 3 15 8c0 -10 -2 -15 -6 -15zM422 238h72l66 181c-47 -39 -87 -94 -138 -181zM102 87c-19 0 -37 -12 -37 -27
c0 -28 31 -49 69 -49c27 0 53 9 77 27c-49 33 -85 49 -109 49zM635 490c-4 0 -25 15 -63 46c-39 -31 -60 -47 -64 -47c-9 0 -13 4 -13 13c0 2 63 81 77 81c9 0 76 -71 76 -80s-4 -13 -13 -13z" />
    <glyph glyph-name="Atilde" unicode="&#xc3;" horiz-adv-x="588" 
d="M611 478c12 0 18 -6 18 -19l-153 -438l56 -9c32 0 40 5 42 27c1 6 4 9 11 9c10 0 15 -6 15 -17c0 -32 -22 -48 -66 -48l-91 9c-29 0 -31 0 -31 15l72 201h-80c-47 -77 -88 -133 -123 -166l195 -114c72 -42 146 -63 221 -63c37 0 71 7 103 21c5 2 9 3 12 3
c9 0 14 -5 14 -14c0 -23 -27 -28 -166 -45c-121 0 -216 42 -414 183c-35 -24 -72 -36 -111 -36c-61 0 -115 30 -115 86c0 37 24 55 72 55c36 0 86 -18 149 -53c19 22 51 68 95 139c71 115 146 198 224 249c-31 7 -64 10 -97 10c-165 0 -330 -119 -330 -238
c0 -45 24 -81 55 -81c11 0 17 -5 17 -15s-6 -15 -17 -15c-53 0 -90 49 -90 116c0 145 152 266 331 266c19 0 48 -4 87 -12c39 -7 68 -11 87 -11c3 1 8 3 15 8c0 -10 -2 -15 -6 -15zM422 238h72l66 181c-47 -39 -87 -94 -138 -181zM102 87c-19 0 -37 -12 -37 -27
c0 -28 31 -49 69 -49c27 0 53 9 77 27c-49 33 -85 49 -109 49zM655 553v2c13 0 19 -5 19 -16c-4 -9 -41 -50 -68 -50c-5 0 -37 7 -68 13c-9 0 -21 -4 -35 -11c-13 0 -20 4 -20 13c0 15 54 48 70 48c32 -8 66 -15 69 -15c1 0 27 12 33 16z" />
    <glyph glyph-name="Adieresis" unicode="&#xc4;" horiz-adv-x="588" 
d="M611 478c12 0 18 -6 18 -19l-153 -438l56 -9c32 0 40 5 42 27c1 6 4 9 11 9c10 0 15 -6 15 -17c0 -32 -22 -48 -66 -48l-91 9c-29 0 -31 0 -31 15l72 201h-80c-47 -77 -88 -133 -123 -166l195 -114c72 -42 146 -63 221 -63c37 0 71 7 103 21c5 2 9 3 12 3
c9 0 14 -5 14 -14c0 -23 -27 -28 -166 -45c-121 0 -216 42 -414 183c-35 -24 -72 -36 -111 -36c-61 0 -115 30 -115 86c0 37 24 55 72 55c36 0 86 -18 149 -53c19 22 51 68 95 139c71 115 146 198 224 249c-31 7 -64 10 -97 10c-165 0 -330 -119 -330 -238
c0 -45 24 -81 55 -81c11 0 17 -5 17 -15s-6 -15 -17 -15c-53 0 -90 49 -90 116c0 145 152 266 331 266c19 0 48 -4 87 -12c39 -7 68 -11 87 -11c3 1 8 3 15 8c0 -10 -2 -15 -6 -15zM422 238h72l66 181c-47 -39 -87 -94 -138 -181zM102 87c-19 0 -37 -12 -37 -27
c0 -28 31 -49 69 -49c27 0 53 9 77 27c-49 33 -85 49 -109 49zM620 489c-19 0 -29 10 -29 29c0 31 19 58 41 58c18 0 27 -11 27 -34c0 -28 -18 -53 -39 -53zM546 489c-19 0 -29 10 -29 29c0 31 19 58 41 58c17 0 26 -11 26 -34c0 -27 -18 -53 -38 -53z" />
    <glyph glyph-name="Aring" unicode="&#xc5;" horiz-adv-x="588" 
d="M611 478c12 0 18 -6 18 -19l-153 -438l56 -9c32 0 40 5 42 27c1 6 4 9 11 9c10 0 15 -6 15 -17c0 -32 -22 -48 -66 -48l-91 9c-29 0 -31 0 -31 15l72 201h-80c-47 -77 -88 -133 -123 -166l195 -114c72 -42 146 -63 221 -63c37 0 71 7 103 21c5 2 9 3 12 3
c9 0 14 -5 14 -14c0 -23 -27 -28 -166 -45c-121 0 -216 42 -414 183c-35 -24 -72 -36 -111 -36c-61 0 -115 30 -115 86c0 37 24 55 72 55c36 0 86 -18 149 -53c19 22 51 68 95 139c71 115 146 198 224 249c-31 7 -64 10 -97 10c-165 0 -330 -119 -330 -238
c0 -45 24 -81 55 -81c11 0 17 -5 17 -15s-6 -15 -17 -15c-53 0 -90 49 -90 116c0 145 152 266 331 266c19 0 48 -4 87 -12c39 -7 68 -11 87 -11c3 1 8 3 15 8c0 -10 -2 -15 -6 -15zM422 238h72l66 181c-47 -39 -87 -94 -138 -181zM102 87c-19 0 -37 -12 -37 -27
c0 -28 31 -49 69 -49c27 0 53 9 77 27c-49 33 -85 49 -109 49zM612 484c-28 0 -50 22 -50 49c0 28 22 50 50 50c21 0 49 -16 49 -50c0 -26 -22 -49 -49 -49zM612 546c-9 0 -13 -4 -13 -13s4 -13 13 -13s13 4 13 13s-4 13 -13 13z" />
    <glyph glyph-name="AE" unicode="&#xc6;" horiz-adv-x="635" 
d="M398 413c47 48 95 72 142 72c46 0 78 -29 78 -70c0 -89 -111 -166 -276 -187c-30 -85 -45 -134 -45 -148c0 -43 26 -65 77 -65c57 0 99 39 126 116c3 7 8 11 17 11c11 0 16 -6 16 -17c0 -3 -41 -113 -45 -121c-5 -10 -12 -15 -22 -15c-9 0 -13 5 -13 15l1 2
c-27 -17 -57 -25 -90 -25c-60 0 -98 23 -114 69c-45 -45 -95 -68 -150 -68c-61 0 -100 34 -100 88c0 109 101 176 289 188c37 95 55 146 55 155c0 27 -18 41 -54 41c-83 0 -167 -72 -167 -145c0 -4 5 -28 11 -50c0 -10 -8 -15 -23 -15c-24 0 -46 29 -46 62
c0 85 110 181 216 181c77 0 116 -25 117 -74zM520 448c-35 0 -117 -73 -139 -110l-28 -77c103 12 206 88 206 153c0 23 -13 34 -39 34zM67 73c0 -36 18 -54 53 -54c49 0 91 23 124 68c0 30 0 47 32 135c-139 -18 -209 -68 -209 -149z" />
    <glyph glyph-name="Ccedilla" unicode="&#xc7;" horiz-adv-x="379" 
d="M401 474c0 5 6 20 22 20c9 0 14 -5 14 -14c-49 -138 -49 -138 -62 -138c-10 0 -15 5 -15 16l12 60c0 31 -20 47 -60 47c-111 0 -235 -190 -235 -363c0 -144 93 -239 217 -239c70 0 127 27 170 81c5 6 10 9 16 9c9 0 13 -4 13 -13c0 -34 -97 -107 -193 -107
c-168 0 -280 116 -280 295c0 192 142 370 289 370c21 0 52 -8 92 -24zM257 -187c7 -9 11 -20 11 -34c0 -27 -27 -45 -66 -45c-14 0 -21 4 -21 13c0 7 15 14 46 19c6 2 6 3 6 24c-15 -13 -25 -19 -30 -19c-9 0 -13 6 -13 18l9 -3c0 -2 -5 -3 -14 -3l9 10c37 32 52 52 55 72
l39 -6c-11 -19 -22 -35 -31 -46z" />
    <glyph glyph-name="Egrave" unicode="&#xc8;" horiz-adv-x="350" 
d="M406 469c3 12 10 18 21 18c10 0 15 -4 15 -13c-40 -109 -41 -109 -51 -109c-9 0 -14 5 -14 16l4 28c0 37 -21 56 -64 56c-55 0 -98 -54 -98 -120c0 -21 5 -38 14 -52h26c49 0 74 -13 74 -38c0 -17 -14 -26 -42 -26c-27 0 -52 9 -75 26c-82 -28 -136 -112 -136 -210
c0 -112 71 -185 180 -185c80 0 133 26 160 79c4 8 9 12 15 12c9 0 13 -5 13 -14c0 -52 -91 -110 -184 -110c-135 0 -244 98 -244 220c0 115 62 203 168 236c-17 22 -26 46 -26 71c0 83 63 144 149 144c25 0 57 -10 95 -29zM299 262c-1 2 -10 3 -26 3c8 -2 17 -3 26 -3z
M323 487l-79 90h61l41 -79z" />
    <glyph glyph-name="Eacute" unicode="&#xc9;" horiz-adv-x="350" 
d="M406 469c3 12 10 18 21 18c10 0 15 -4 15 -13c-40 -109 -41 -109 -51 -109c-9 0 -14 5 -14 16l4 28c0 37 -21 56 -64 56c-55 0 -98 -54 -98 -120c0 -21 5 -38 14 -52h26c49 0 74 -13 74 -38c0 -17 -14 -26 -42 -26c-27 0 -52 9 -75 26c-82 -28 -136 -112 -136 -210
c0 -112 71 -185 180 -185c80 0 133 26 160 79c4 8 9 12 15 12c9 0 13 -5 13 -14c0 -52 -91 -110 -184 -110c-135 0 -244 98 -244 220c0 115 62 203 168 236c-17 22 -26 46 -26 71c0 83 63 144 149 144c25 0 57 -10 95 -29zM299 262c-1 2 -10 3 -26 3c8 -2 17 -3 26 -3z
M333 487l-23 11l41 79h61z" />
    <glyph glyph-name="Ecircumflex" unicode="&#xca;" horiz-adv-x="350" 
d="M406 469c3 12 10 18 21 18c10 0 15 -4 15 -13c-40 -109 -41 -109 -51 -109c-9 0 -14 5 -14 16l4 28c0 37 -21 56 -64 56c-55 0 -98 -54 -98 -120c0 -21 5 -38 14 -52h26c49 0 74 -13 74 -38c0 -17 -14 -26 -42 -26c-27 0 -52 9 -75 26c-82 -28 -136 -112 -136 -210
c0 -112 71 -185 180 -185c80 0 133 26 160 79c4 8 9 12 15 12c9 0 13 -5 13 -14c0 -52 -91 -110 -184 -110c-135 0 -244 98 -244 220c0 115 62 203 168 236c-17 22 -26 46 -26 71c0 83 63 144 149 144c25 0 57 -10 95 -29zM299 262c-1 2 -10 3 -26 3c8 -2 17 -3 26 -3z
M387 490c-4 0 -25 15 -63 46c-39 -31 -60 -47 -64 -47c-9 0 -13 4 -13 13c0 2 63 81 77 81c9 0 76 -71 76 -80s-4 -13 -13 -13z" />
    <glyph glyph-name="Edieresis" unicode="&#xcb;" horiz-adv-x="350" 
d="M406 469c3 12 10 18 21 18c10 0 15 -4 15 -13c-40 -109 -41 -109 -51 -109c-9 0 -14 5 -14 16l4 28c0 37 -21 56 -64 56c-55 0 -98 -54 -98 -120c0 -21 5 -38 14 -52h26c49 0 74 -13 74 -38c0 -17 -14 -26 -42 -26c-27 0 -52 9 -75 26c-82 -28 -136 -112 -136 -210
c0 -112 71 -185 180 -185c80 0 133 26 160 79c4 8 9 12 15 12c9 0 13 -5 13 -14c0 -52 -91 -110 -184 -110c-135 0 -244 98 -244 220c0 115 62 203 168 236c-17 22 -26 46 -26 71c0 83 63 144 149 144c25 0 57 -10 95 -29zM299 262c-1 2 -10 3 -26 3c8 -2 17 -3 26 -3z
M367 489c-19 0 -29 10 -29 29c0 31 19 58 41 58c18 0 27 -11 27 -34c0 -28 -18 -53 -39 -53zM293 489c-19 0 -29 10 -29 29c0 31 19 58 41 58c17 0 26 -11 26 -34c0 -27 -18 -53 -38 -53z" />
    <glyph glyph-name="Igrave" unicode="&#xcc;" horiz-adv-x="324" 
d="M371 467c-124 -2 -212 -63 -263 -182c-17 -39 -25 -71 -25 -96c0 -37 22 -67 66 -88c6 -3 9 -8 9 -15c0 -12 -3 -15 -17 -15c-46 13 -108 65 -108 145c0 143 161 282 334 282c46 0 69 -7 69 -22c0 -5 -3 -9 -8 -12c-31 -19 -54 -52 -71 -101
c-141 -423 -248 -558 -478 -558c-122 0 -245 74 -245 126c0 10 5 15 14 15c6 0 12 -5 18 -15c38 -61 106 -92 203 -92c184 0 281 105 383 404c37 108 76 183 119 224zM335 487l-79 90h61l41 -79z" />
    <glyph glyph-name="Iacute" unicode="&#xcd;" horiz-adv-x="324" 
d="M371 467c-124 -2 -212 -63 -263 -182c-17 -39 -25 -71 -25 -96c0 -37 22 -67 66 -88c6 -3 9 -8 9 -15c0 -12 -3 -15 -17 -15c-46 13 -108 65 -108 145c0 143 161 282 334 282c46 0 69 -7 69 -22c0 -5 -3 -9 -8 -12c-31 -19 -54 -52 -71 -101
c-141 -423 -248 -558 -478 -558c-122 0 -245 74 -245 126c0 10 5 15 14 15c6 0 12 -5 18 -15c38 -61 106 -92 203 -92c184 0 281 105 383 404c37 108 76 183 119 224zM362 487l-23 11l41 79h61z" />
    <glyph glyph-name="Icircumflex" unicode="&#xce;" horiz-adv-x="324" 
d="M371 467c-124 -2 -212 -63 -263 -182c-17 -39 -25 -71 -25 -96c0 -37 22 -67 66 -88c6 -3 9 -8 9 -15c0 -12 -3 -15 -17 -15c-46 13 -108 65 -108 145c0 143 161 282 334 282c46 0 69 -7 69 -22c0 -5 -3 -9 -8 -12c-31 -19 -54 -52 -71 -101
c-141 -423 -248 -558 -478 -558c-122 0 -245 74 -245 126c0 10 5 15 14 15c6 0 12 -5 18 -15c38 -61 106 -92 203 -92c184 0 281 105 383 404c37 108 76 183 119 224zM411 490c-4 0 -25 15 -63 46c-39 -31 -60 -47 -64 -47c-9 0 -13 4 -13 13c0 2 63 81 77 81
c9 0 76 -71 76 -80s-4 -13 -13 -13z" />
    <glyph glyph-name="Idieresis" unicode="&#xcf;" horiz-adv-x="324" 
d="M371 467c-124 -2 -212 -63 -263 -182c-17 -39 -25 -71 -25 -96c0 -37 22 -67 66 -88c6 -3 9 -8 9 -15c0 -12 -3 -15 -17 -15c-46 13 -108 65 -108 145c0 143 161 282 334 282c46 0 69 -7 69 -22c0 -5 -3 -9 -8 -12c-31 -19 -54 -52 -71 -101
c-141 -423 -248 -558 -478 -558c-122 0 -245 74 -245 126c0 10 5 15 14 15c6 0 12 -5 18 -15c38 -61 106 -92 203 -92c184 0 281 105 383 404c37 108 76 183 119 224zM389 489c-19 0 -29 10 -29 29c0 31 19 58 41 58c18 0 27 -11 27 -34c0 -28 -18 -53 -39 -53zM315 489
c-19 0 -29 10 -29 29c0 31 19 58 41 58c17 0 26 -11 26 -34c0 -27 -18 -53 -38 -53z" />
    <glyph glyph-name="Eth" unicode="&#xd0;" horiz-adv-x="632" 
d="M369 -72c-61 0 -144 38 -144 73c0 34 18 69 36 69c5 0 11 -4 18 -12c-3 -9 -5 -17 -5 -22c0 -46 43 -78 96 -78c95 0 184 134 184 264c0 117 -71 226 -182 243c-12 -31 -39 -108 -81 -229c46 0 53 -3 53 -19c0 -11 -4 -16 -13 -16l-53 -1c-70 -211 -70 -211 -82 -211
c-15 2 -24 3 -30 3c-4 0 -12 -1 -32 -5c-9 0 -13 4 -13 13c0 11 4 15 33 27c5 5 27 63 66 172c-15 0 -30 1 -46 3c-8 7 -12 14 -12 20c0 9 4 13 13 13h56l84 232c-114 -9 -195 -66 -242 -172c-17 -39 -26 -75 -26 -108c0 -84 35 -103 79 -103c4 0 10 -3 17 -8
c-6 -13 -16 -20 -30 -20c-70 0 -113 58 -113 152c0 167 141 290 330 290c151 0 281 -127 281 -275c0 -169 -99 -295 -242 -295z" />
    <glyph glyph-name="Ntilde" unicode="&#xd1;" horiz-adv-x="599" 
d="M1172 538c-3 0 -7 1 -10 4c-39 34 -90 51 -153 51c-224 0 -400 -202 -481 -552c53 -111 131 -166 234 -166c51 0 62 10 96 41c10 -5 10 -5 19 -14c-19 -42 -57 -59 -137 -59c-195 0 -335 225 -335 519c-9 -26 -19 -53 -28 -82c-58 -180 -155 -288 -259 -288
c-51 0 -100 34 -100 65c9 9 21 28 34 56c3 7 7 10 12 10c9 0 13 -5 13 -16c-3 -6 -3 -6 -6 -31c0 -25 25 -47 53 -47c109 0 164 94 285 431c-139 -3 -236 -55 -293 -155c-17 -29 -25 -57 -25 -83c0 -54 16 -87 48 -99c3 -1 7 -5 13 -11c-7 -8 -13 -12 -19 -13
c-64 25 -88 61 -88 138c0 120 80 199 239 238c41 10 75 15 101 15c46 -5 65 -7 72 -7c6 2 8 2 9 2c10 0 15 -5 15 -14c-9 -33 -17 -61 -17 -67c0 -125 15 -229 44 -314c86 351 251 537 476 537c94 0 201 -42 201 -76c0 -9 -4 -13 -13 -13zM682 575v2c13 0 19 -5 19 -16
c-4 -9 -41 -50 -68 -50c-5 0 -37 7 -68 13c-9 0 -21 -4 -35 -11c-13 0 -20 4 -20 13c0 15 54 48 70 48c32 -8 66 -15 69 -15c1 0 27 12 33 16z" />
    <glyph glyph-name="Ograve" unicode="&#xd2;" horiz-adv-x="504" 
d="M207 -20c-99 0 -172 86 -172 201c0 151 128 305 255 305c8 0 12 -4 12 -12c0 -7 -4 -11 -12 -13c-98 -21 -203 -179 -203 -306c0 -88 51 -144 132 -144c91 0 161 58 211 173c17 40 26 79 26 117c0 89 -45 154 -107 154c-57 0 -108 -56 -108 -118c0 -13 1 -22 4 -27l5 -9
c0 -9 -4 -14 -12 -14c-24 0 -42 31 -42 63c0 74 69 134 152 134c97 0 167 -81 167 -192c0 -167 -135 -312 -308 -312zM316 487l-79 90h61l41 -79z" />
    <glyph glyph-name="Oacute" unicode="&#xd3;" horiz-adv-x="504" 
d="M207 -20c-99 0 -172 86 -172 201c0 151 128 305 255 305c8 0 12 -4 12 -12c0 -7 -4 -11 -12 -13c-98 -21 -203 -179 -203 -306c0 -88 51 -144 132 -144c91 0 161 58 211 173c17 40 26 79 26 117c0 89 -45 154 -107 154c-57 0 -108 -56 -108 -118c0 -13 1 -22 4 -27l5 -9
c0 -9 -4 -14 -12 -14c-24 0 -42 31 -42 63c0 74 69 134 152 134c97 0 167 -81 167 -192c0 -167 -135 -312 -308 -312zM336 487l-23 11l41 79h61z" />
    <glyph glyph-name="Ocircumflex" unicode="&#xd4;" horiz-adv-x="504" 
d="M207 -20c-99 0 -172 86 -172 201c0 151 128 305 255 305c8 0 12 -4 12 -12c0 -7 -4 -11 -12 -13c-98 -21 -203 -179 -203 -306c0 -88 51 -144 132 -144c91 0 161 58 211 173c17 40 26 79 26 117c0 89 -45 154 -107 154c-57 0 -108 -56 -108 -118c0 -13 1 -22 4 -27l5 -9
c0 -9 -4 -14 -12 -14c-24 0 -42 31 -42 63c0 74 69 134 152 134c97 0 167 -81 167 -192c0 -167 -135 -312 -308 -312zM385 490c-4 0 -25 15 -63 46c-39 -31 -60 -47 -64 -47c-9 0 -13 4 -13 13c0 2 63 81 77 81c9 0 76 -71 76 -80s-4 -13 -13 -13z" />
    <glyph glyph-name="Otilde" unicode="&#xd5;" horiz-adv-x="504" 
d="M207 -20c-99 0 -172 86 -172 201c0 151 128 305 255 305c8 0 12 -4 12 -12c0 -7 -4 -11 -12 -13c-98 -21 -203 -179 -203 -306c0 -88 51 -144 132 -144c91 0 161 58 211 173c17 40 26 79 26 117c0 89 -45 154 -107 154c-57 0 -108 -56 -108 -118c0 -13 1 -22 4 -27l5 -9
c0 -9 -4 -14 -12 -14c-24 0 -42 31 -42 63c0 74 69 134 152 134c97 0 167 -81 167 -192c0 -167 -135 -312 -308 -312zM406 553v2c13 0 19 -5 19 -16c-4 -9 -41 -50 -68 -50c-5 0 -37 7 -68 13c-9 0 -21 -4 -35 -11c-13 0 -20 4 -20 13c0 15 54 48 70 48c32 -8 66 -15 69 -15
c1 0 27 12 33 16z" />
    <glyph glyph-name="Odieresis" unicode="&#xd6;" horiz-adv-x="504" 
d="M207 -20c-99 0 -172 86 -172 201c0 151 128 305 255 305c8 0 12 -4 12 -12c0 -7 -4 -11 -12 -13c-98 -21 -203 -179 -203 -306c0 -88 51 -144 132 -144c91 0 161 58 211 173c17 40 26 79 26 117c0 89 -45 154 -107 154c-57 0 -108 -56 -108 -118c0 -13 1 -22 4 -27l5 -9
c0 -9 -4 -14 -12 -14c-24 0 -42 31 -42 63c0 74 69 134 152 134c97 0 167 -81 167 -192c0 -167 -135 -312 -308 -312zM382 489c-19 0 -29 10 -29 29c0 31 19 58 41 58c18 0 27 -11 27 -34c0 -28 -18 -53 -39 -53zM308 489c-19 0 -29 10 -29 29c0 31 19 58 41 58
c17 0 26 -11 26 -34c0 -27 -18 -53 -38 -53z" />
    <glyph glyph-name="multiply" unicode="&#xd7;" horiz-adv-x="261" 
d="M195 176c-7 0 -12 3 -16 10c0 2 -16 19 -48 50c-39 -42 -61 -63 -66 -63c-12 0 -18 8 -18 25c0 7 3 11 9 14c4 2 20 19 50 49c-20 19 -41 39 -64 62c0 15 8 22 25 22c11 0 22 -9 32 -27c1 -1 11 -12 32 -31l62 64c15 0 22 -8 22 -24c0 -6 -19 -28 -58 -66l64 -61
c0 -13 -13 -24 -26 -24z" />
    <glyph glyph-name="Oslash" unicode="&#xd8;" horiz-adv-x="504" 
d="M206 -20l-30 -91c-2 -6 -6 -9 -13 -9c-10 0 -15 4 -15 13c0 3 9 32 27 88c-92 12 -150 102 -150 200c0 151 128 305 255 305c8 0 12 -4 12 -12c0 -7 -4 -11 -12 -13c-100 -22 -203 -179 -203 -306c0 -77 42 -133 109 -143l143 442c-52 -5 -98 -60 -98 -117
c0 -13 1 -18 9 -38c0 -8 -4 -12 -12 -12c-24 0 -42 31 -42 63c0 74 69 134 152 134l26 76c1 7 6 11 13 11c9 0 14 -4 14 -13c0 -3 -8 -28 -23 -77c82 -15 137 -91 137 -190c0 -163 -133 -308 -299 -311zM215 11c122 4 231 149 231 291c0 75 -37 139 -88 150z" />
    <glyph glyph-name="Ugrave" unicode="&#xd9;" horiz-adv-x="455" 
d="M166 444c-31 3 -47 4 -47 5h2c-16 0 -29 -7 -73 -32c-9 0 -14 4 -14 13c0 24 56 59 102 59l72 -12c2 0 9 1 50 12c11 0 17 -5 17 -14c0 -3 -11 -12 -32 -28c-105 -80 -159 -167 -159 -300c0 -83 33 -124 99 -124c128 0 240 188 240 419c0 96 -27 148 -83 171
c-7 2 -10 6 -10 13c0 9 5 13 14 13c13 0 28 -8 47 -23c56 -46 84 -126 84 -241c0 -192 -152 -387 -292 -387c-109 0 -163 69 -163 207c0 81 72 202 146 249zM344 487l-79 90h61l41 -79z" />
    <glyph glyph-name="Uacute" unicode="&#xda;" horiz-adv-x="455" 
d="M166 444c-31 3 -47 4 -47 5h2c-16 0 -29 -7 -73 -32c-9 0 -14 4 -14 13c0 24 56 59 102 59l72 -12c2 0 9 1 50 12c11 0 17 -5 17 -14c0 -3 -11 -12 -32 -28c-105 -80 -159 -167 -159 -300c0 -83 33 -124 99 -124c128 0 240 188 240 419c0 96 -27 148 -83 171
c-7 2 -10 6 -10 13c0 9 5 13 14 13c13 0 28 -8 47 -23c56 -46 84 -126 84 -241c0 -192 -152 -387 -292 -387c-109 0 -163 69 -163 207c0 81 72 202 146 249zM314 487l-23 11l41 79h61z" />
    <glyph glyph-name="Ucircumflex" unicode="&#xdb;" horiz-adv-x="455" 
d="M166 444c-31 3 -47 4 -47 5h2c-16 0 -29 -7 -73 -32c-9 0 -14 4 -14 13c0 24 56 59 102 59l72 -12c2 0 9 1 50 12c11 0 17 -5 17 -14c0 -3 -11 -12 -32 -28c-105 -80 -159 -167 -159 -300c0 -83 33 -124 99 -124c128 0 240 188 240 419c0 96 -27 148 -83 171
c-7 2 -10 6 -10 13c0 9 5 13 14 13c13 0 28 -8 47 -23c56 -46 84 -126 84 -241c0 -192 -152 -387 -292 -387c-109 0 -163 69 -163 207c0 81 72 202 146 249zM389 490c-4 0 -25 15 -63 46c-39 -31 -60 -47 -64 -47c-9 0 -13 4 -13 13c0 2 63 81 77 81c9 0 76 -71 76 -80
s-4 -13 -13 -13z" />
    <glyph glyph-name="Udieresis" unicode="&#xdc;" horiz-adv-x="455" 
d="M166 444c-31 3 -47 4 -47 5h2c-16 0 -29 -7 -73 -32c-9 0 -14 4 -14 13c0 24 56 59 102 59l72 -12c2 0 9 1 50 12c11 0 17 -5 17 -14c0 -3 -11 -12 -32 -28c-105 -80 -159 -167 -159 -300c0 -83 33 -124 99 -124c128 0 240 188 240 419c0 96 -27 148 -83 171
c-7 2 -10 6 -10 13c0 9 5 13 14 13c13 0 28 -8 47 -23c56 -46 84 -126 84 -241c0 -192 -152 -387 -292 -387c-109 0 -163 69 -163 207c0 81 72 202 146 249zM361 489c-19 0 -29 10 -29 29c0 31 19 58 41 58c18 0 27 -11 27 -34c0 -28 -18 -53 -39 -53zM287 489
c-19 0 -29 10 -29 29c0 31 19 58 41 58c17 0 26 -11 26 -34c0 -27 -18 -53 -38 -53z" />
    <glyph glyph-name="Yacute" unicode="&#xdd;" horiz-adv-x="501" 
d="M-247 -23c1 -1 3 -3 5 -6c-3 -7 -13 -31 -13 -45c0 -77 75 -123 199 -123c154 0 284 76 390 229c-45 -30 -92 -45 -143 -45c-88 0 -148 67 -148 167c0 116 99 240 255 312c-119 -8 -234 -91 -234 -159c0 -5 7 -19 15 -35c0 -10 -4 -15 -13 -15c-19 0 -37 31 -37 65
c0 93 123 174 280 174c57 0 85 -5 85 -16c0 -7 -3 -12 -9 -14c-147 -47 -278 -203 -278 -331c0 -71 34 -113 91 -113c62 0 162 57 197 112c44 69 128 322 128 326c-11 8 -18 14 -23 22c7 7 34 10 81 11c9 0 14 -5 14 -16c-168 -514 -331 -707 -630 -707
c-168 0 -267 53 -267 143c0 50 26 71 62 71zM445 487l-23 11l41 79h61z" />
    <glyph glyph-name="Thorn" unicode="&#xde;" horiz-adv-x="414" 
d="M260 126c-35 0 -70 9 -103 26l-47 -135c36 -5 56 -7 63 -7c10 0 23 5 40 15l10 -10c0 -24 -19 -36 -58 -36c-39 7 -80 13 -86 13c-11 0 -24 -2 -57 -6l-10 9c14 14 30 34 48 61l115 331c-49 -5 -89 -23 -120 -54c-5 -5 -11 -7 -19 -7l-14 7c24 49 79 78 164 89
c7 20 11 31 11 33c0 5 -7 14 -21 27c0 11 5 17 16 17c78 -5 78 -5 78 -18c0 -3 -6 -22 -19 -58c145 -12 173 -98 173 -150c0 -79 -76 -147 -164 -147zM240 391l-73 -210c23 -13 45 -19 67 -19c77 0 128 50 128 126c0 67 -41 101 -122 103z" />
    <glyph glyph-name="germandbls" unicode="&#xdf;" horiz-adv-x="564" 
d="M98 162v7c49 0 57 11 133 214c27 67 91 117 149 117c113 0 169 -39 169 -117c0 -55 -50 -91 -128 -91c-31 0 -46 -13 -46 -40c0 -16 12 -37 35 -63l68 -75c25 -34 38 -70 38 -108c0 -129 -128 -220 -305 -220c-88 0 -152 29 -193 86c-12 17 -18 31 -18 44
c0 29 10 44 29 44c10 0 15 -5 15 -15c-3 -15 -4 -20 -4 -21c0 -58 73 -100 184 -100c129 0 229 75 229 174c0 30 -11 59 -33 86c-87 100 -101 118 -101 146c0 57 43 94 106 94c29 0 52 30 52 68c0 45 -20 68 -60 68c-57 0 -104 -43 -142 -129c-12 -27 -33 -81 -62 -162h59
l8 -8c0 -17 -7 -26 -21 -26h-59c-13 -36 -26 -76 -40 -121l42 -7c5 0 8 0 49 19l5 -10c0 -25 -27 -42 -64 -42c-1 0 -5 0 -46 9h-22c-3 0 -11 -2 -26 -7c-9 0 -13 5 -13 14l49 145c-7 -1 -32 -3 -38 -3c-13 0 -20 6 -20 17c0 13 8 20 25 21l2 -15h-6l-2 -2c-3 2 -4 4 -4 7
s2 5 5 8z" />
    <glyph glyph-name="agrave" unicode="&#xe0;" 
d="M208 17c-33 -23 -68 -35 -107 -35c-54 0 -81 20 -81 61c0 103 155 141 239 153c12 32 18 51 18 56c0 31 -4 37 -38 37c-61 -1 -107 -31 -107 -97c0 -13 -6 -19 -19 -19c-16 0 -33 23 -33 46c0 53 86 100 154 100c65 0 95 -24 95 -73c-1 -21 -11 -57 -30 -107
c-19 -49 -28 -84 -28 -105c0 -1 2 -2 7 -2c11 0 22 6 68 31c8 0 12 -5 12 -14c0 -25 -85 -60 -114 -60c-21 0 -33 9 -36 28zM84 47c0 -20 10 -30 29 -30c35 0 70 18 105 53l29 88c-98 -17 -163 -60 -163 -111zM262 331l-79 90h61l41 -79z" />
    <glyph glyph-name="aacute" unicode="&#xe1;" 
d="M208 17c-33 -23 -68 -35 -107 -35c-54 0 -81 20 -81 61c0 103 155 141 239 153c12 32 18 51 18 56c0 31 -4 37 -38 37c-61 -1 -107 -31 -107 -97c0 -13 -6 -19 -19 -19c-16 0 -33 23 -33 46c0 53 86 100 154 100c65 0 95 -24 95 -73c-1 -21 -11 -57 -30 -107
c-19 -49 -28 -84 -28 -105c0 -1 2 -2 7 -2c11 0 22 6 68 31c8 0 12 -5 12 -14c0 -25 -85 -60 -114 -60c-21 0 -33 9 -36 28zM84 47c0 -20 10 -30 29 -30c35 0 70 18 105 53l29 88c-98 -17 -163 -60 -163 -111zM234 332l-23 11l41 79h61z" />
    <glyph glyph-name="acircumflex" unicode="&#xe2;" 
d="M208 17c-33 -23 -68 -35 -107 -35c-54 0 -81 20 -81 61c0 103 155 141 239 153c12 32 18 51 18 56c0 31 -4 37 -38 37c-61 -1 -107 -31 -107 -97c0 -13 -6 -19 -19 -19c-16 0 -33 23 -33 46c0 53 86 100 154 100c65 0 95 -24 95 -73c-1 -21 -11 -57 -30 -107
c-19 -49 -28 -84 -28 -105c0 -1 2 -2 7 -2c11 0 22 6 68 31c8 0 12 -5 12 -14c0 -25 -85 -60 -114 -60c-21 0 -33 9 -36 28zM84 47c0 -20 10 -30 29 -30c35 0 70 18 105 53l29 88c-98 -17 -163 -60 -163 -111zM294 334c-4 0 -25 15 -63 46c-39 -31 -60 -47 -64 -47
c-9 0 -13 4 -13 13c0 2 63 81 77 81c9 0 76 -71 76 -80s-4 -13 -13 -13z" />
    <glyph glyph-name="atilde" unicode="&#xe3;" 
d="M208 17c-33 -23 -68 -35 -107 -35c-54 0 -81 20 -81 61c0 103 155 141 239 153c12 32 18 51 18 56c0 31 -4 37 -38 37c-61 -1 -107 -31 -107 -97c0 -13 -6 -19 -19 -19c-16 0 -33 23 -33 46c0 53 86 100 154 100c65 0 95 -24 95 -73c-1 -21 -11 -57 -30 -107
c-19 -49 -28 -84 -28 -105c0 -1 2 -2 7 -2c11 0 22 6 68 31c8 0 12 -5 12 -14c0 -25 -85 -60 -114 -60c-21 0 -33 9 -36 28zM84 47c0 -20 10 -30 29 -30c35 0 70 18 105 53l29 88c-98 -17 -163 -60 -163 -111zM306 397v2c13 0 19 -5 19 -16c-4 -9 -41 -50 -68 -50
c-5 0 -37 7 -68 13c-9 0 -21 -4 -35 -11c-13 0 -20 4 -20 13c0 15 54 48 70 48c32 -8 66 -15 69 -15c1 0 27 12 33 16z" />
    <glyph glyph-name="adieresis" unicode="&#xe4;" 
d="M208 17c-33 -23 -68 -35 -107 -35c-54 0 -81 20 -81 61c0 103 155 141 239 153c12 32 18 51 18 56c0 31 -4 37 -38 37c-61 -1 -107 -31 -107 -97c0 -13 -6 -19 -19 -19c-16 0 -33 23 -33 46c0 53 86 100 154 100c65 0 95 -24 95 -73c-1 -21 -11 -57 -30 -107
c-19 -49 -28 -84 -28 -105c0 -1 2 -2 7 -2c11 0 22 6 68 31c8 0 12 -5 12 -14c0 -25 -85 -60 -114 -60c-21 0 -33 9 -36 28zM84 47c0 -20 10 -30 29 -30c35 0 70 18 105 53l29 88c-98 -17 -163 -60 -163 -111zM276 333c-19 0 -29 10 -29 29c0 31 19 58 41 58
c18 0 27 -11 27 -34c0 -28 -18 -53 -39 -53zM202 333c-19 0 -29 10 -29 29c0 31 19 58 41 58c17 0 26 -11 26 -34c0 -27 -18 -53 -38 -53z" />
    <glyph glyph-name="aring" unicode="&#xe5;" 
d="M208 17c-33 -23 -68 -35 -107 -35c-54 0 -81 20 -81 61c0 103 155 141 239 153c12 32 18 51 18 56c0 31 -4 37 -38 37c-61 -1 -107 -31 -107 -97c0 -13 -6 -19 -19 -19c-16 0 -33 23 -33 46c0 53 86 100 154 100c65 0 95 -24 95 -73c-1 -21 -11 -57 -30 -107
c-19 -49 -28 -84 -28 -105c0 -1 2 -2 7 -2c11 0 22 6 68 31c8 0 12 -5 12 -14c0 -25 -85 -60 -114 -60c-21 0 -33 9 -36 28zM84 47c0 -20 10 -30 29 -30c35 0 70 18 105 53l29 88c-98 -17 -163 -60 -163 -111zM225 330c-28 0 -50 22 -50 49c0 28 22 50 50 50
c21 0 49 -16 49 -50c0 -26 -22 -49 -49 -49zM225 392c-9 0 -13 -4 -13 -13s4 -13 13 -13s13 4 13 13s-4 13 -13 13z" />
    <glyph glyph-name="ae" unicode="&#xe6;" horiz-adv-x="485" 
d="M441 69c-59 -57 -119 -85 -179 -85c-37 0 -61 16 -72 49c-34 -29 -71 -44 -112 -44c-52 0 -78 20 -78 59c0 74 76 123 227 146c11 29 17 49 17 58c0 19 -12 29 -35 29c-54 0 -102 -30 -102 -88c0 -15 -6 -22 -18 -22c-18 0 -32 21 -32 44c0 46 73 95 147 95
c51 0 81 -16 89 -47c33 33 67 49 103 49c47 0 71 -15 71 -45c0 -47 -75 -87 -195 -104c-22 -62 -33 -98 -33 -107c0 -24 13 -36 40 -36c48 0 117 41 168 99c4 5 9 7 14 7c9 0 14 -5 14 -14c0 -7 -11 -21 -34 -43zM394 280c-37 0 -71 -21 -104 -62c-1 -5 -4 -12 -7 -21
c78 9 130 37 130 72c0 7 -6 11 -19 11zM62 52c0 -19 9 -29 26 -29c32 0 65 17 99 50c4 14 13 42 27 83c-60 -10 -152 -39 -152 -104z" />
    <glyph glyph-name="ccedilla" unicode="&#xe7;" horiz-adv-x="342" 
d="M289 171c-9 0 -14 6 -14 18c1 7 4 38 4 39c0 34 -16 51 -49 51c-68 0 -139 -107 -139 -198c0 -55 29 -68 66 -68c47 0 86 20 117 59c13 22 24 33 32 33c10 0 15 -5 15 -15c0 -16 -61 -112 -168 -112c-75 0 -121 45 -121 118c0 113 92 218 195 218c27 0 54 -10 81 -30
c5 13 12 20 21 20c11 0 16 -6 16 -17c-41 -111 -44 -116 -56 -116zM120 -45c7 -9 11 -20 11 -34c0 -27 -27 -45 -66 -45c-14 0 -21 4 -21 13c0 7 15 14 46 19c6 2 6 3 6 24c-15 -13 -25 -19 -30 -19c-9 0 -13 6 -13 18l9 -3c0 -2 -5 -3 -14 -3l9 10c37 32 52 52 55 72l39 -6
c-11 -19 -22 -35 -31 -46z" />
    <glyph glyph-name="egrave" unicode="&#xe8;" horiz-adv-x="318" 
d="M312 256c-29 -23 -99 -87 -210 -194c14 -31 38 -46 71 -46c40 0 77 21 111 63c3 5 7 8 13 8c9 0 14 -5 14 -16c0 -33 -88 -92 -152 -92c-74 0 -127 56 -127 136c0 110 85 199 189 199c53 0 97 -23 97 -47c0 -5 -2 -9 -6 -11zM208 279c-69 0 -116 -79 -116 -178l161 150
c-7 19 -22 28 -45 28zM181 331l-79 90h61l41 -79z" />
    <glyph glyph-name="eacute" unicode="&#xe9;" horiz-adv-x="318" 
d="M312 256c-29 -23 -99 -87 -210 -194c14 -31 38 -46 71 -46c40 0 77 21 111 63c3 5 7 8 13 8c9 0 14 -5 14 -16c0 -33 -88 -92 -152 -92c-74 0 -127 56 -127 136c0 110 85 199 189 199c53 0 97 -23 97 -47c0 -5 -2 -9 -6 -11zM208 279c-69 0 -116 -79 -116 -178l161 150
c-7 19 -22 28 -45 28zM215 331l-23 11l41 79h61z" />
    <glyph glyph-name="ecircumflex" unicode="&#xea;" horiz-adv-x="318" 
d="M312 256c-29 -23 -99 -87 -210 -194c14 -31 38 -46 71 -46c40 0 77 21 111 63c3 5 7 8 13 8c9 0 14 -5 14 -16c0 -33 -88 -92 -152 -92c-74 0 -127 56 -127 136c0 110 85 199 189 199c53 0 97 -23 97 -47c0 -5 -2 -9 -6 -11zM208 279c-69 0 -116 -79 -116 -178l161 150
c-7 19 -22 28 -45 28zM264 334c-4 0 -25 15 -63 46c-39 -31 -60 -47 -64 -47c-9 0 -13 4 -13 13c0 2 63 81 77 81c9 0 76 -71 76 -80s-4 -13 -13 -13z" />
    <glyph glyph-name="edieresis" unicode="&#xeb;" horiz-adv-x="318" 
d="M312 256c-29 -23 -99 -87 -210 -194c14 -31 38 -46 71 -46c40 0 77 21 111 63c3 5 7 8 13 8c9 0 14 -5 14 -16c0 -33 -88 -92 -152 -92c-74 0 -127 56 -127 136c0 110 85 199 189 199c53 0 97 -23 97 -47c0 -5 -2 -9 -6 -11zM208 279c-69 0 -116 -79 -116 -178l161 150
c-7 19 -22 28 -45 28zM238 333c-19 0 -29 10 -29 29c0 31 19 58 41 58c18 0 27 -11 27 -34c0 -28 -18 -53 -39 -53zM164 333c-19 0 -29 10 -29 29c0 31 19 58 41 58c17 0 26 -11 26 -34c0 -27 -18 -53 -38 -53z" />
    <glyph glyph-name="igrave" unicode="&#xec;" horiz-adv-x="163" 
d="M134 26c13 0 19 -5 19 -14c0 -19 -18 -28 -53 -28c-35 4 -49 5 -56 5c-4 0 -8 -1 -23 -5c-10 0 -12 1 -12 20l1 4c61 151 91 238 91 263c-15 13 -16 14 -16 20c0 9 5 14 16 14h59c9 0 13 -5 13 -14l-95 -274l23 -4c7 0 18 4 33 13zM147 331l-79 90h61l41 -79z" />
    <glyph glyph-name="iacute" unicode="&#xed;" horiz-adv-x="166" 
d="M134 26c13 0 19 -5 19 -14c0 -19 -18 -28 -53 -28c-35 4 -49 5 -56 5c-4 0 -8 -1 -23 -5c-10 0 -12 1 -12 20l1 4c61 151 91 238 91 263c-15 13 -16 14 -16 20c0 9 5 14 16 14h59c9 0 13 -5 13 -14l-95 -274l23 -4c7 0 18 4 33 13zM139 331l-23 11l41 79h61z" />
    <glyph glyph-name="icircumflex" unicode="&#xee;" horiz-adv-x="164" 
d="M134 26c13 0 19 -5 19 -14c0 -19 -18 -28 -53 -28c-35 4 -49 5 -56 5c-4 0 -8 -1 -23 -5c-10 0 -12 1 -12 20l1 4c61 151 91 238 91 263c-15 13 -16 14 -16 20c0 9 5 14 16 14h59c9 0 13 -5 13 -14l-95 -274l23 -4c7 0 18 4 33 13zM208 335c-4 0 -25 15 -63 46
c-39 -31 -60 -47 -64 -47c-9 0 -13 4 -13 13c0 2 63 81 77 81c9 0 76 -71 76 -80s-4 -13 -13 -13z" />
    <glyph glyph-name="idieresis" unicode="&#xef;" horiz-adv-x="167" 
d="M134 26c13 0 19 -5 19 -14c0 -19 -18 -28 -53 -28c-35 4 -49 5 -56 5c-4 0 -8 -1 -23 -5c-10 0 -12 1 -12 20l1 4c61 151 91 238 91 263c-15 13 -16 14 -16 20c0 9 5 14 16 14h59c9 0 13 -5 13 -14l-95 -274l23 -4c7 0 18 4 33 13zM179 333c-19 0 -29 10 -29 29
c0 31 19 58 41 58c18 0 27 -11 27 -34c0 -28 -18 -53 -39 -53zM105 333c-19 0 -29 10 -29 29c0 31 19 58 41 58c17 0 26 -11 26 -34c0 -27 -18 -53 -38 -53z" />
    <glyph glyph-name="eth" unicode="&#xf0;" horiz-adv-x="356" 
d="M381 363v20c7 0 11 -2 11 -6c0 -13 -2 -14 -7 -14l-28 -1c2 -10 3 -20 3 -31c0 -31 -14 -88 -43 -173c-33 -97 -110 -167 -182 -167c-69 0 -123 57 -123 132c0 108 89 198 196 198c41 0 72 -12 92 -35c9 26 12 45 12 76h-29c-43 0 -64 8 -64 23c0 9 5 13 14 13h72
c-14 43 -48 64 -102 64c-89 0 -134 -34 -134 -102c0 -18 -2 -22 -13 -22c-20 3 -34 24 -34 52c0 74 94 108 166 108c79 0 131 -33 157 -100h43c9 -4 13 -10 13 -19c0 -11 -7 -16 -20 -16zM214 289c-82 0 -144 -86 -144 -187c0 -39 29 -72 62 -72c76 0 142 90 142 187
c0 48 -20 72 -60 72z" />
    <glyph glyph-name="ntilde" unicode="&#xf1;" horiz-adv-x="424" 
d="M404 35c12 0 18 -5 18 -16c0 -20 -15 -30 -45 -30l-54 4c-4 0 -12 -1 -24 -3c-9 0 -13 4 -13 13c28 71 77 220 77 238c0 26 -12 39 -37 39c-38 0 -70 -18 -95 -53c-14 -31 -67 -189 -67 -203c0 -1 2 -4 12 -19c0 -9 -5 -14 -15 -14h-27c-38 0 -42 0 -42 12
c0 2 33 94 98 275c-48 0 -108 -57 -108 -150c0 -13 3 -22 9 -27c9 -8 13 -14 13 -18c0 -9 -6 -13 -17 -13c-27 0 -51 43 -51 89c0 90 82 154 199 154c13 0 20 -6 20 -17c-1 -1 -1 -3 -2 -6c27 16 53 24 80 24c50 0 86 -31 86 -76c0 -11 -1 -21 -4 -30
c-15 -41 -62 -170 -62 -191c30 2 39 3 50 16zM348 396v2c13 0 19 -5 19 -16c-4 -9 -41 -50 -68 -50c-5 0 -37 7 -68 13c-9 0 -21 -4 -35 -11c-13 0 -20 4 -20 13c0 15 54 48 70 48c32 -8 66 -15 69 -15c1 0 27 12 33 16z" />
    <glyph glyph-name="ograve" unicode="&#xf2;" horiz-adv-x="348" 
d="M150 -18c-73 0 -118 54 -118 137c0 108 77 194 174 194c25 0 38 -6 38 -18c0 -9 -5 -13 -16 -13l-14 1c-62 0 -128 -104 -128 -186c0 -55 19 -82 56 -82c85 0 143 112 143 210c0 56 -21 84 -61 84c-11 0 -17 5 -17 14c0 10 9 15 28 15c59 0 107 -63 107 -141
c0 -116 -87 -215 -192 -215zM199 330l-79 90h61l41 -79z" />
    <glyph glyph-name="oacute" unicode="&#xf3;" horiz-adv-x="348" 
d="M150 -18c-73 0 -118 54 -118 137c0 108 77 194 174 194c25 0 38 -6 38 -18c0 -9 -5 -13 -16 -13l-14 1c-62 0 -128 -104 -128 -186c0 -55 19 -82 56 -82c85 0 143 112 143 210c0 56 -21 84 -61 84c-11 0 -17 5 -17 14c0 10 9 15 28 15c59 0 107 -63 107 -141
c0 -116 -87 -215 -192 -215zM210 332l-23 11l41 79h61z" />
    <glyph glyph-name="ocircumflex" unicode="&#xf4;" horiz-adv-x="348" 
d="M150 -18c-73 0 -118 54 -118 137c0 108 77 194 174 194c25 0 38 -6 38 -18c0 -9 -5 -13 -16 -13l-14 1c-62 0 -128 -104 -128 -186c0 -55 19 -82 56 -82c85 0 143 112 143 210c0 56 -21 84 -61 84c-11 0 -17 5 -17 14c0 10 9 15 28 15c59 0 107 -63 107 -141
c0 -116 -87 -215 -192 -215zM286 334c-4 0 -25 15 -63 46c-39 -31 -60 -47 -64 -47c-9 0 -13 4 -13 13c0 2 63 81 77 81c9 0 76 -71 76 -80s-4 -13 -13 -13z" />
    <glyph glyph-name="otilde" unicode="&#xf5;" horiz-adv-x="355" 
d="M150 -18c-73 0 -118 54 -118 137c0 108 77 194 174 194c25 0 38 -6 38 -18c0 -9 -5 -13 -16 -13l-14 1c-62 0 -128 -104 -128 -186c0 -55 19 -82 56 -82c85 0 143 112 143 210c0 56 -21 84 -61 84c-11 0 -17 5 -17 14c0 10 9 15 28 15c59 0 107 -63 107 -141
c0 -116 -87 -215 -192 -215zM330 399v2c13 0 19 -5 19 -16c-4 -9 -41 -50 -68 -50c-5 0 -37 7 -68 13c-9 0 -21 -4 -35 -11c-13 0 -20 4 -20 13c0 15 54 48 70 48c32 -8 66 -15 69 -15c1 0 27 12 33 16z" />
    <glyph glyph-name="odieresis" unicode="&#xf6;" horiz-adv-x="348" 
d="M150 -18c-73 0 -118 54 -118 137c0 108 77 194 174 194c25 0 38 -6 38 -18c0 -9 -5 -13 -16 -13l-14 1c-62 0 -128 -104 -128 -186c0 -55 19 -82 56 -82c85 0 143 112 143 210c0 56 -21 84 -61 84c-11 0 -17 5 -17 14c0 10 9 15 28 15c59 0 107 -63 107 -141
c0 -116 -87 -215 -192 -215zM264 334c-19 0 -29 10 -29 29c0 31 19 58 41 58c18 0 27 -11 27 -34c0 -28 -18 -53 -39 -53zM190 334c-19 0 -29 10 -29 29c0 31 19 58 41 58c17 0 26 -11 26 -34c0 -27 -18 -53 -38 -53z" />
    <glyph glyph-name="divide" unicode="&#xf7;" horiz-adv-x="354" 
d="M175 275c-17 0 -26 11 -26 34c0 27 19 53 39 53c17 0 26 -11 26 -34c0 -28 -18 -53 -39 -53zM277 241v-1l-191 1c-13 0 -20 9 -20 27c0 9 5 14 16 14c8 -1 142 -4 143 -4s30 2 45 4c15 0 23 -9 23 -28c0 -10 -4 -13 -16 -13zM163 158c-17 0 -26 11 -26 34
c0 27 19 53 39 53c18 0 27 -11 27 -34c0 -27 -19 -53 -40 -53z" />
    <glyph glyph-name="oslash" unicode="&#xf8;" horiz-adv-x="348" 
d="M127 -17c-19 -43 -31 -64 -37 -64c-10 0 -15 5 -15 14c0 3 8 21 23 56c-51 16 -76 59 -76 130c0 108 77 194 174 194c25 0 38 -6 38 -18c0 -9 -5 -13 -16 -13l-14 1c-59 0 -128 -104 -128 -186c0 -43 12 -69 35 -78l128 286c-40 6 -42 7 -42 18c0 10 9 15 28 15
c9 0 18 -2 27 -5c15 33 25 49 30 49c10 0 15 -5 15 -15c-2 -8 -9 -23 -20 -47c37 -27 55 -68 55 -123c0 -120 -90 -214 -205 -214zM261 283l-119 -268c72 7 133 104 133 210c0 23 -5 42 -14 58z" />
    <glyph glyph-name="ugrave" unicode="&#xf9;" horiz-adv-x="371" 
d="M354 143c-37 -105 -100 -158 -187 -158c-72 0 -122 53 -122 133c0 50 35 117 76 153c-45 -9 -68 -23 -68 -42c0 -9 -5 -13 -14 -13s-13 5 -13 14c0 67 68 78 153 75h-2c3 0 12 1 18 2c9 0 14 -4 14 -13c0 -5 -2 -9 -7 -12c-65 -43 -98 -106 -98 -189c0 -49 21 -74 63 -74
c79 0 149 79 149 191c0 39 -2 42 -27 84c6 6 19 10 53 10c18 0 27 -28 27 -85c0 -22 -5 -47 -15 -76zM230 332l-79 90h61l41 -79z" />
    <glyph glyph-name="uacute" unicode="&#xfa;" horiz-adv-x="371" 
d="M354 143c-37 -105 -100 -158 -187 -158c-72 0 -122 53 -122 133c0 50 35 117 76 153c-45 -9 -68 -23 -68 -42c0 -9 -5 -13 -14 -13s-13 5 -13 14c0 67 68 78 153 75h-2c3 0 12 1 18 2c9 0 14 -4 14 -13c0 -5 -2 -9 -7 -12c-65 -43 -98 -106 -98 -189c0 -49 21 -74 63 -74
c79 0 149 79 149 191c0 39 -2 42 -27 84c6 6 19 10 53 10c18 0 27 -28 27 -85c0 -22 -5 -47 -15 -76zM242 333l-23 11l41 79h61z" />
    <glyph glyph-name="ucircumflex" unicode="&#xfb;" horiz-adv-x="371" 
d="M354 143c-37 -105 -100 -158 -187 -158c-72 0 -122 53 -122 133c0 50 35 117 76 153c-45 -9 -68 -23 -68 -42c0 -9 -5 -13 -14 -13s-13 5 -13 14c0 67 68 78 153 75h-2c3 0 12 1 18 2c9 0 14 -4 14 -13c0 -5 -2 -9 -7 -12c-65 -43 -98 -106 -98 -189c0 -49 21 -74 63 -74
c79 0 149 79 149 191c0 39 -2 42 -27 84c6 6 19 10 53 10c18 0 27 -28 27 -85c0 -22 -5 -47 -15 -76zM301 334c-4 0 -25 15 -63 46c-39 -31 -60 -47 -64 -47c-9 0 -13 4 -13 13c0 2 63 81 77 81c9 0 76 -71 76 -80s-4 -13 -13 -13z" />
    <glyph glyph-name="udieresis" unicode="&#xfc;" horiz-adv-x="371" 
d="M354 143c-37 -105 -100 -158 -187 -158c-72 0 -122 53 -122 133c0 50 35 117 76 153c-45 -9 -68 -23 -68 -42c0 -9 -5 -13 -14 -13s-13 5 -13 14c0 67 68 78 153 75h-2c3 0 12 1 18 2c9 0 14 -4 14 -13c0 -5 -2 -9 -7 -12c-65 -43 -98 -106 -98 -189c0 -49 21 -74 63 -74
c79 0 149 79 149 191c0 39 -2 42 -27 84c6 6 19 10 53 10c18 0 27 -28 27 -85c0 -22 -5 -47 -15 -76zM279 334c-19 0 -29 10 -29 29c0 31 19 58 41 58c18 0 27 -11 27 -34c0 -28 -18 -53 -39 -53zM205 334c-19 0 -29 10 -29 29c0 31 19 58 41 58c17 0 26 -11 26 -34
c0 -27 -18 -53 -38 -53z" />
    <glyph glyph-name="yacute" unicode="&#xfd;" horiz-adv-x="342" 
d="M359 282c-110 -367 -182 -489 -300 -489c-10 0 -15 4 -15 13c0 12 1 13 46 29c38 27 77 87 117 181c-31 -22 -60 -33 -88 -33c-68 0 -103 51 -103 109c0 61 39 141 88 180c-16 0 -25 0 -49 -10c-9 0 -13 4 -13 12c0 16 25 28 54 28l49 -1h-2c9 1 25 3 30 4
c11 0 17 -5 17 -15c-84 -80 -112 -123 -112 -230c0 -28 17 -42 51 -42c31 0 94 42 108 73c9 19 52 159 52 173c0 1 0 1 -21 24c0 10 25 15 81 15c2 1 4 2 5 2c4 0 5 -5 5 -23zM236 332l-23 11l41 79h61z" />
    <glyph glyph-name="thorn" unicode="&#xfe;" horiz-adv-x="341" 
d="M186 428l7 -3c0 -3 -1 -6 -41 -131c21 11 44 16 69 16c64 0 108 -53 108 -128c0 -109 -78 -202 -177 -202c-40 0 -70 11 -91 33c-58 -160 -153 -255 -256 -255c-17 0 -26 5 -26 16c0 10 7 15 21 15c96 0 154 92 221 294l104 321c-12 14 -19 24 -21 27c0 8 5 12 16 12
c71 0 74 -1 74 -21h-10l4 9c0 -2 -1 -2 -2 -3zM214 274c-42 0 -70 -15 -83 -45c-7 -22 -23 -72 -48 -151c3 -42 24 -63 65 -63c65 0 121 89 121 185c0 49 -18 74 -55 74z" />
    <glyph glyph-name="ydieresis" unicode="&#xff;" horiz-adv-x="352" 
d="M369 282c-110 -367 -182 -489 -300 -489c-10 0 -15 4 -15 13c0 12 1 13 46 29c38 27 77 87 117 181c-31 -22 -60 -33 -88 -33c-68 0 -103 51 -103 109c0 61 39 141 88 180c-16 0 -25 0 -49 -10c-9 0 -13 4 -13 12c0 16 25 28 54 28l49 -1h-2c10 1 25 4 30 4
c11 0 17 -5 17 -15c-84 -80 -112 -123 -112 -230c0 -28 17 -42 51 -42c31 0 94 42 108 73c9 19 52 159 52 173c0 1 0 1 -21 24c0 10 25 15 81 15c2 1 4 2 5 2c4 0 5 -5 5 -23zM276 333c-19 0 -29 10 -29 29c0 31 19 58 41 58c18 0 27 -11 27 -34c0 -28 -18 -53 -39 -53z
M202 333c-19 0 -29 10 -29 29c0 31 19 58 41 58c17 0 26 -11 26 -34c0 -27 -18 -53 -38 -53z" />
    <glyph glyph-name="OE" unicode="&#x152;" horiz-adv-x="527" 
d="M404 -167c-106 0 -209 60 -255 148c-78 15 -134 92 -134 181c0 143 62 249 186 317c39 21 67 32 86 32c10 0 15 -5 15 -16c-3 -7 -7 -10 -11 -10c-104 -23 -221 -198 -221 -347c0 -63 21 -102 62 -117c-7 21 -10 43 -10 66c0 91 41 158 123 200c-15 19 -23 41 -23 66
c0 74 63 134 141 134c82 0 134 -63 134 -163c0 -157 -135 -327 -295 -344c35 -68 123 -112 202 -112c77 0 131 28 160 84c4 8 9 12 14 12c9 0 13 -4 13 -13c0 -45 -85 -118 -187 -118zM328 281c-9 0 -17 -1 -26 -4c17 -13 38 -20 61 -20c8 0 12 3 12 8c0 11 -16 16 -47 16z
M378 452c-54 0 -105 -64 -105 -129c0 -8 2 -15 5 -22c22 7 42 11 61 11c49 0 73 -17 73 -52c0 -21 -16 -32 -49 -32c-30 0 -60 11 -90 33c-53 -42 -91 -129 -91 -205c0 -15 2 -29 7 -44c138 5 251 219 251 321c0 88 -14 119 -62 119z" />
    <glyph glyph-name="oe" unicode="&#x153;" horiz-adv-x="485" 
d="M466 237l-207 -120c-2 -12 -3 -23 -3 -34c0 -43 17 -65 51 -65c35 0 89 37 131 91c5 5 9 7 13 7c9 0 14 -5 14 -15c0 -33 -103 -116 -157 -116c-46 0 -77 20 -93 60c-29 -39 -64 -59 -103 -59c-75 0 -112 41 -112 123c0 83 36 143 107 182c23 13 44 19 62 19
c47 0 79 -18 95 -55c35 38 79 57 130 57c44 0 79 -26 79 -59c0 -6 -2 -11 -7 -16zM383 280c-47 0 -91 -46 -113 -117l128 72c11 6 16 15 16 26c0 13 -10 19 -31 19zM170 278c-55 0 -118 -99 -118 -189c0 -48 17 -72 50 -72c64 0 117 101 117 203c0 39 -16 58 -49 58z" />
    <glyph glyph-name="Scaron" unicode="&#x160;" horiz-adv-x="741" 
d="M791 357c-3 -6 -8 -9 -13 -9c-11 0 -17 6 -17 19c2 12 2 14 2 15c0 63 -15 79 -72 79c-53 0 -91 -46 -91 -103c0 -17 10 -40 31 -69c77 -107 96 -147 96 -216c0 -174 -150 -294 -363 -294c-138 0 -240 75 -251 184c-39 -22 -58 -47 -58 -74c0 -5 6 -15 17 -31
c0 -13 -6 -19 -17 -19c-16 0 -37 32 -37 54c0 39 31 75 94 110c15 142 118 251 289 251c93 0 140 -23 140 -68c0 -70 -71 -104 -287 -167c-44 -13 -80 -27 -108 -40c7 -104 85 -156 233 -156c160 0 294 105 294 238c0 68 -1 71 -96 207c-24 35 -36 65 -36 90
c0 85 58 139 149 139c42 0 75 -11 99 -32l7 13c6 11 12 17 17 17c12 0 18 -8 18 -25zM402 219c-116 0 -227 -86 -253 -197c42 19 105 43 189 74c91 33 137 63 137 90c0 22 -24 33 -73 33zM731 497c-3 -5 -8 -8 -13 -8c-6 0 -11 3 -14 8l-52 78c2 11 7 16 14 16
c4 0 21 -17 51 -51c31 34 48 51 52 51c7 0 12 -5 14 -16z" />
    <glyph glyph-name="scaron" unicode="&#x161;" horiz-adv-x="285" 
d="M232 225c-3 -6 -7 -9 -12 -9c-13 0 -15 2 -15 24c0 41 -16 60 -52 60c-31 0 -46 -13 -46 -39c0 -17 12 -38 35 -63c90 -97 106 -121 106 -183c0 -129 -130 -221 -305 -221c-87 0 -152 29 -193 87c-12 17 -18 31 -18 44c0 29 10 43 29 43c10 0 15 -5 15 -15l-4 -20
c0 -60 74 -101 184 -101c131 0 229 74 229 175c0 46 -16 68 -97 160c-25 28 -37 52 -37 72c0 55 43 93 106 93c31 0 55 -8 72 -24c8 15 15 23 20 23c11 0 17 -7 17 -22zM229 341c-3 -5 -8 -8 -13 -8c-6 0 -11 3 -14 8l-52 78c2 11 7 16 14 16c4 0 21 -17 51 -51
c31 34 48 51 52 51c7 0 12 -5 14 -16z" />
    <glyph glyph-name="Ydieresis" unicode="&#x178;" horiz-adv-x="511" 
d="M-237 -23c1 -1 3 -3 5 -6c-3 -7 -13 -31 -13 -45c0 -77 75 -123 199 -123c154 0 284 76 390 229c-45 -30 -92 -45 -143 -45c-88 0 -148 67 -148 167c0 116 99 240 255 312c-119 -8 -234 -91 -234 -159c0 -5 7 -19 15 -35c0 -10 -4 -15 -13 -15c-19 0 -37 31 -37 65
c0 93 123 174 280 174c57 0 85 -5 85 -16c0 -7 -3 -12 -9 -14c-147 -47 -278 -203 -278 -331c0 -71 34 -113 91 -113c62 0 162 57 197 112c44 69 128 322 128 326c-11 8 -18 14 -23 22c7 7 34 10 81 11c9 0 14 -5 14 -16c-168 -514 -331 -707 -630 -707
c-168 0 -267 53 -267 143c0 50 26 71 62 71zM500 489c-19 0 -29 10 -29 29c0 31 19 58 41 58c18 0 27 -11 27 -34c0 -28 -18 -53 -39 -53zM426 489c-19 0 -29 10 -29 29c0 31 19 58 41 58c17 0 26 -11 26 -34c0 -27 -18 -53 -38 -53z" />
    <glyph glyph-name="Zcaron" unicode="&#x17d;" horiz-adv-x="417" 
d="M1016 -135l-2 -2v7c13 0 19 -5 19 -15c-16 -33 -86 -58 -160 -58c-121 0 -207 26 -408 120c-129 60 -224 90 -284 90c-21 0 -24 0 -157 -21c-6 0 -11 5 -16 14c3 3 8 7 15 12c79 22 142 75 238 217h-31c-10 0 -15 5 -15 14c0 13 6 19 18 19c15 -1 35 -3 46 -3l75 111
c21 32 48 60 79 85c-131 0 -175 -10 -252 -61c-69 -46 -104 -103 -104 -172c0 -30 13 -52 40 -65c9 0 13 -5 13 -14s-4 -13 -13 -13c-6 0 -16 4 -31 11c-44 22 -66 58 -66 107c0 130 149 242 328 242c143 0 152 -4 171 -21c-3 -7 -7 -11 -10 -14c-67 -50 -91 -88 -152 -197
h38c10 0 15 -4 15 -12c0 -14 -7 -21 -21 -21c-9 0 -25 1 -50 3c-49 -81 -107 -144 -174 -190h27v5c63 0 128 -14 197 -42c313 -130 417 -164 505 -164c61 0 87 13 154 52l-29 -30zM389 497c-3 -5 -8 -8 -13 -8c-6 0 -11 3 -14 8l-52 78c2 11 7 16 14 16c4 0 21 -17 51 -51
c31 34 48 51 52 51c7 0 12 -5 14 -16z" />
    <glyph glyph-name="zcaron" unicode="&#x17e;" horiz-adv-x="272" 
d="M578 -187c-105 0 -182 30 -396 126c-75 33 -125 50 -150 50c-15 0 -22 6 -22 17c0 7 5 12 16 15c49 17 77 57 154 189c18 31 34 54 49 69c-87 -16 -169 -93 -169 -141c0 -8 4 -17 17 -37c0 -8 -4 -12 -12 -12c-26 0 -49 31 -49 64c0 88 111 160 271 160
c10 0 18 -4 23 -13c-28 -30 -41 -45 -69 -100c-50 -96 -99 -159 -148 -188l324 -111c100 -31 172 -46 216 -46c43 0 77 10 102 31c5 4 9 6 12 6c8 0 12 -4 12 -13c0 -37 -81 -66 -181 -66zM201 341c-3 -5 -8 -8 -13 -8c-6 0 -11 3 -14 8l-52 78c2 11 7 16 14 16
c4 0 21 -17 51 -51c31 34 48 51 52 51c7 0 12 -5 14 -16z" />
    <glyph glyph-name="florin" unicode="&#x192;" horiz-adv-x="698" 
d="M778 424c-7 0 -13 8 -18 25c-13 45 -71 68 -113 68c-151 0 -285 -73 -366 -347h58c9 0 13 -5 13 -15c0 -16 -7 -24 -21 -24h-61c-56 -187 -81 -240 -150 -306c-39 -38 -74 -57 -105 -57c-10 0 -15 4 -15 13c0 7 16 18 47 35c63 44 140 197 161 313h-40
c-13 0 -20 5 -20 16c0 18 5 20 31 20s39 8 53 40c103 237 229 347 412 347c77 0 150 -41 173 -95c0 -9 -13 -20 -39 -33z" />
    <glyph glyph-name="circumflex" unicode="&#x2c6;" horiz-adv-x="209" 
d="M168 490c-4 0 -25 15 -63 46c-39 -31 -60 -47 -64 -47c-9 0 -13 4 -13 13c0 2 63 81 77 81c9 0 76 -71 76 -80s-4 -13 -13 -13z" />
    <glyph glyph-name="macron" unicode="&#xaf;" horiz-adv-x="251" 
d="M204 489c-174 5 -174 5 -174 17c0 13 6 19 18 19c79 -3 101 -3 164 -3c9 0 13 -4 13 -13c0 -13 -7 -20 -21 -20z" />
    <glyph glyph-name="tilde" unicode="&#x2dc;" horiz-adv-x="248" 
d="M200 553v2c13 0 19 -5 19 -16c-4 -9 -41 -50 -68 -50c-5 0 -37 7 -68 13c-9 0 -21 -4 -35 -11c-13 0 -20 4 -20 13c0 15 54 48 70 48c32 -8 66 -15 69 -15c1 0 27 12 33 16z" />
    <glyph glyph-name="endash" unicode="&#x2013;" horiz-adv-x="373" 
d="M49 203c-12 0 -18 5 -18 14c0 19 8 28 24 28c3 0 5 -1 8 -2c158 0 182 0 264 4c14 0 19 -3 19 -14c0 -25 0 -25 -297 -30z" />
    <glyph glyph-name="emdash" unicode="&#x2014;" horiz-adv-x="528" 
d="M460 205c-39 3 -42 3 -93 3c-1 0 -302 -3 -321 -4c-15 0 -23 5 -23 14c0 14 16 28 32 28c3 0 7 -1 11 -2l414 3c13 0 19 -5 19 -14c0 -14 -19 -28 -39 -28z" />
    <glyph glyph-name="quoteleft" unicode="&#x2018;" horiz-adv-x="113" 
d="M92 463c-17 -18 -26 -30 -26 -37c11 -9 17 -18 17 -27c0 -29 -20 -58 -41 -58c-17 0 -26 13 -26 38c0 50 31 94 92 133c10 -2 15 -8 15 -17z" />
    <glyph glyph-name="quoteright" unicode="&#x2019;" horiz-adv-x="138" 
d="M22 357l-6 6c28 14 54 55 54 64l-8 8c-6 5 -9 12 -9 20c0 29 17 57 41 57c17 0 26 -13 26 -38c0 -50 -31 -94 -92 -133c-10 2 -15 8 -15 19c3 0 3 0 9 -3z" />
    <glyph glyph-name="quotesinglbase" unicode="&#x201a;" horiz-adv-x="96" 
d="M-12 -78l-6 6c28 14 54 55 54 64l-8 8c-6 5 -9 12 -9 20c0 29 17 57 41 57c17 0 26 -13 26 -38c0 -50 -31 -94 -92 -133c-10 2 -15 8 -15 19c3 0 3 0 9 -3z" />
    <glyph glyph-name="quotedblleft" unicode="&#x201c;" horiz-adv-x="179" 
d="M158 463c-17 -18 -26 -30 -26 -37c0 -1 0 -1 18 -27c0 -28 -19 -58 -42 -58c-17 0 -26 13 -26 38c0 50 43 103 92 133c10 -2 15 -8 15 -17zM92 463c-17 -18 -26 -30 -26 -37c11 -9 17 -18 17 -27c0 -29 -20 -58 -41 -58c-17 0 -26 13 -26 38c0 50 31 94 92 133
c10 -2 15 -8 15 -17z" />
    <glyph glyph-name="quotedblright" unicode="&#x201d;" horiz-adv-x="205" 
d="M89 357l-6 6c28 14 54 55 54 64l-8 8c-6 5 -9 12 -9 20c0 29 17 57 41 57c17 0 26 -13 26 -38c0 -50 -31 -94 -92 -133c-10 2 -15 8 -15 19c3 0 3 0 9 -3zM23 357l-6 6c28 14 54 55 54 64l-8 8c-6 5 -9 12 -9 20c0 29 17 57 41 57c17 0 26 -13 26 -38
c0 -50 -31 -94 -92 -133c-10 2 -15 8 -15 19c3 0 3 0 9 -3z" />
    <glyph glyph-name="quotedblbase" unicode="&#x201e;" horiz-adv-x="96" 
d="M66 -78l-6 6c28 14 54 55 54 64l-8 8c-6 5 -9 12 -9 20c0 29 17 57 41 57c17 0 26 -13 26 -38c0 -50 -31 -94 -92 -133c-10 2 -15 8 -15 19c3 0 3 0 9 -3zM-12 -78l-6 6c28 14 54 55 54 64l-8 8c-6 5 -9 12 -9 20c0 29 17 57 41 57c17 0 26 -13 26 -38
c0 -50 -31 -94 -92 -133c-10 2 -15 8 -15 19c3 0 3 0 9 -3z" />
    <glyph glyph-name="bullet" unicode="&#x2022;" horiz-adv-x="300" 
d="M32 198c-21 0 -32 11 -32 33c0 32 21 67 47 67c20 0 30 -13 30 -38c0 -35 -20 -62 -45 -62z" />
    <glyph glyph-name="ellipsis" unicode="&#x2026;" horiz-adv-x="357" 
d="M42 -11c-19 0 -29 10 -29 29c0 31 19 58 41 58c17 0 26 -11 26 -34c0 -27 -18 -53 -38 -53zM266 -11c-19 0 -29 10 -29 29c0 31 19 58 41 58c17 0 26 -11 26 -34c0 -27 -18 -53 -38 -53zM154 -11c-19 0 -29 10 -29 29c0 31 19 58 41 58c17 0 26 -11 26 -34
c0 -27 -18 -53 -38 -53z" />
    <glyph glyph-name="perthousand" unicode="&#x2030;" horiz-adv-x="885" 
d="M628 -19c-63 0 -109 51 -109 121c0 107 79 199 172 199c62 0 94 -58 94 -124c0 -103 -73 -196 -157 -196zM362 -19c-63 0 -109 51 -109 121c0 105 81 199 172 199c62 0 94 -58 94 -124c0 -106 -71 -196 -157 -196zM170 -111c-2 -6 -7 -9 -14 -9c-9 0 -14 5 -14 14
c0 2 72 224 216 666c1 7 6 11 13 11c10 0 15 -5 15 -14c0 -2 -72 -225 -216 -668zM115 164c-63 0 -109 51 -109 121c0 105 79 199 171 199c62 0 94 -58 94 -124c0 -105 -72 -196 -156 -196zM688 271c-63 0 -123 -90 -123 -187c0 -49 20 -73 59 -73c61 0 119 108 119 196
c0 43 -18 64 -55 64zM423 271c-64 0 -124 -93 -124 -187c0 -49 20 -73 60 -73c58 0 118 104 118 196c0 43 -18 64 -54 64zM175 454c-63 0 -123 -90 -123 -187c0 -49 20 -73 59 -73c61 0 119 108 119 196c0 43 -18 64 -55 64z" />
    <glyph glyph-name="guilsinglleft" unicode="&#x2039;" horiz-adv-x="174" 
d="M107 148l17 -88l-24 -12l-48 104l88 98l22 -11z" />
    <glyph glyph-name="guilsinglright" unicode="&#x203a;" horiz-adv-x="174" 
d="M55 51l-23 11l55 90l-17 89l26 9l46 -102z" />
    <glyph glyph-name="trademark" unicode="&#x2122;" horiz-adv-x="311" 
d="M257 291l16 1c9 0 13 -4 13 -13c0 -11 -9 -16 -27 -16l-36 -1c-9 2 -13 7 -13 14c36 104 36 104 36 112c0 1 -1 1 -2 1c-21 0 -46 -98 -46 -102c0 -1 6 -14 9 -19l-14 -6c-14 0 -25 1 -47 8c27 69 40 108 40 118c0 1 -1 1 -2 1c-17 0 -34 -35 -51 -103c4 -3 6 -6 6 -11
c0 -9 -11 -13 -34 -13c-13 0 -19 4 -19 12c0 3 14 42 41 117h-19l-30 -88c6 5 11 7 16 7c7 -2 11 -6 11 -13c0 -17 -33 -36 -51 -36c-16 0 -24 8 -24 25c0 8 12 43 36 106c-9 1 -13 5 -13 13c0 11 6 17 18 17c15 0 31 24 46 73l12 4c9 -2 13 -6 13 -13c0 -3 -8 -25 -23 -66
h39c5 0 8 -1 11 -4c6 3 12 4 17 4c12 0 22 -4 29 -12c11 8 21 12 31 12c25 0 38 -14 38 -41c0 -13 -3 -23 -27 -88z" />
    <glyph glyph-name="periodcentered" unicode="&#xb7;" horiz-adv-x="129" 
d="M72 255c-19 0 -29 10 -29 29c0 31 19 58 41 58c17 0 26 -11 26 -34c0 -27 -18 -53 -38 -53z" />
    <glyph glyph-name="nonbreakingspace" unicode="&#xa0;" horiz-adv-x="175" 
 />
  </font>
</defs>
</svg>
